<?xml version="1.0" encoding="UTF-8"?>
<svg id="Layer_1" xmlns="http://www.w3.org/2000/svg" version="1.1" viewBox="0 0 2000 2000">
  <!-- Generator: Adobe Illustrator 29.5.1, SVG Export Plug-In . SVG Version: 2.1.0 Build 141)  -->
  <path d="M1217.96,1263.81c-4.18-3.21-36.61-25.43-37.5-24.22-.68.91,16.94,14.93,19.75,17.22,19.87,16.13,125.5,115.77,119.36,264.91-1.49,36.26-9.28,68.65-20.01,96.76-3.94,8.79-8.35,17.73-13.27,26.77-10.88,20.01-22.92,38.03-35.52,54.2-5.67-2.72-11.46-5.11-17.16-7.22-18.11-6.73-37.01-11.06-55.94-14.82l22.85-48.59c.1-.53-.03-.99-.27-1.46-1.54-3.11-14.71-7.01-17.02-10.51,45.24.18,80.54-33,95.19-73.84,25.26-70.52-5-139.43-19.54-166.51-71.32-132.91-249.93-175.28-337.81-145.43-25.33,8.61-50.87,23.07-50.87,23.07-43.93,24.84-72.99,55.28-89.91,75.96v-25.96l-35.21,66.74,69.82-34.61h-26.57c13.9-19.38,45.92-58.2,100.76-80.01,89.38-35.53,170.34,1.91,193.21,11.92,78.13,34.22,160.31,121.74,155.31,212.39-1.63,29.39-16.1,68.76-52.14,65.13-18.62-1.87-28.37-18.74-43.08-27.99-22.66-14.25-45.13-15.38-70.53-8.22-10.58,2.98-27.33,13.91-27.11-5.44.11-10.26,8.3-31.58,14.9-39.52,5.31-6.4,14.93-14.06,23.35-15.05,2.31,3.15,7,6.96,10.42,9.05,9.18,5.6,23.64,6.5,27.93,17.8,2.72,7.13.81,9.3-3.62,14.74l10.5,2.18-6.17,4.93c13.28,6.86,35.23,4.28,36.51-13.9.06-1.01-.58-1.99-.56-2.61.04-2.2,5.47-.79,7.18-.35,6.69,1.73,11.7,8.31,18.66,2.96-6.73-.64-8.5-7.67-14.01-10.7-4.02-2.2-8.06-2.05-11.93-3.52-6.58-2.49-8.64-10.66-13.62-15.13,6.03.52,11.8,2.5,17.92,1.86l-2.46,7.41c2.92-1.82,6.21-4.85,9.88-4.02l-5.55,4.63c4.59.26,9.12-1.38,12.96-3.7l-1.22,6.17c3.52-.16,7.08-1.42,10.09-3.18.16-.09,1.49-1.02,2.7-2.28,3.88-4.03,8.49-13.49,4.41-22.4-.33-.7-3.17-6.67-9.51-9.29-4.64-1.91-7.21-.41-13.26-1.13-3.71-.45-8.85-1.75-14.83-5.59,1.65-4.58,2.2-8.04-1.52-11.76-2.23-2.23-9.37-7.11-12.27-8.74-4.37-2.44-9.19-3.94-13.88-5.59-3.12-11.98-12.14-21.5-14.36-33.86-5.36,7.41-7.36,18.16-7.42,27.2-8.68-10.57-22.13-10.62-32.45-19.77-2.12-1.88-5.09-6.32-6.78-7.43-.69-.45-.42-.96-1.22.03-6.33,7.69-1.45,23.59,2.76,31.49-25.87,5.1-45.45,28.14-57.58,50.27-9.73,17.75-14.45,37.15-19.36,56.64l-2.17,4.65c-2.47-5.88-3.39-12.22-3.11-18.57,1.28-28.83,12.39-51.67,7.97-82.7-2.48-17.5-9.33-36.97-24.63-47.07l3.69-3.72c5.49-6.7,9.99-14.57,11.76-23.15-5.96,4.65-12.59,5.11-19.76,6.18l7.29-8.45c3.75-6.08,5.11-12.44,4.36-19.59-.3-2.87-1.4-7.75-3.63-9.66.57,5.04-.45,10.25-2.97,14.64-4.39,7.67-13.17,10.38-20.61,14.79,2.12-2.68,4.14-6.01,5.59-10.04,2.09-5.88,2.17-11.12,1.92-14.44-2.27,1.83-2.73,5.19-4.66,7.37-3.63,4.08-9.87,3.99-14.66,5.74-7.78,2.85-13.69,8.68-14.67,17.16-1.09.15-.59-1.39-.61-2.15-.31-7.61,5.44-15.34,0-21.94-1.1,7.97-10.61,9.2-13.85,15.51-2.17,4.22-1.72,8.37-1.3,12.91-2.56-2.62-5.01-7.22-5.02-10.92-.02-3.47,2.86-8.11,3.31-11.79.92-7.29-5.52-14.27-12.81-14.36.87,2.73,3.16,4.6,3.91,7.53,2.41,9.55-7.87,12.32-7.65,19.33.17,5.05,7.6,10.71,6.86,15.46-.23,1.52-5.21,3.73-6.77,5-2.37,1.93-3.89,3.79-4.58,5.96-1,3.09-.28,5.92.2,7.27-4.74,2.96-9.16,4.46-13.02,5.18-4.37.82-5.69.21-9.15,1.41-1.88.65-8.21,2.84-10.99,8.97-3.47,7.67,1.41,15.44,1.83,16.1.77,1.11,1.71,2.3,2.87,3.48,3.48,3.52,7.3,5.32,9.91,6.27l-.31-6.79c2.18,3.18,5.85,6.97,9.58,7.11-1.79-2.03-2.53-5.1-2.46-7.73,3.18,2.79,6.57,5.16,10.5,6.79l-2.47-7.4h20.09c.13,0,1.12,1.03.92,1.22-3.05.47-6.23,1.49-8.66,3.39-4.5,3.52-4.05,8.61-10.49,10.53-6.76,2.02-19.79,1.55-21.02,10.8,6.78-1.38,13.02-1.62,19.78.01-5.01,15.54,5.02,23.63,18.37,28.28,4.52,1.57,11.15,3.82,15.62,1.7-4.5-3.75-6.28-8.7-5.56-14.53l7.41,3.09c-.27-1.9-1.54-3.3-1.8-5.31-1.65-13.01,19.94-29.44,23.9-10.92,1.78,8.35-.92,20.17-3.55,28.28l-18.86,48.51c-13.34-32.62-39.55-60.35-75.7-65.51,2.82-9.25,2.6-19.3-.63-28.43-2.39,2.79-3.74,6.08-6.16,8.98-4.87,5.85-12.43,11.12-19.79,13.27,1.09-4.95,3.24-10.56.94-15.44-6.57,6.46-14.37,13.66-22.12,18.67-11.29,7.32-31.05,9.5-27.01,28.29-3.2,1.53-8.32,3.92-14.74,6.68-11.76,5.06-14.28,5.5-16.38,8.76-4.01,6.26-2.32,16.5,2.65,20.74,1.91,1.62,5.12,3.06,6.17,3.54,2.7,1.21,5.1,1.9,6.84,2.3-.71-1.17-1.06-1.98-1.25-3.38-.1-.71-.54-3.17.93-2.79,2.71,3.44,5.9,4.95,10.21,5.55.24-.19-1.48-1.71-1.77-2.25-.32-.6-2.57-6.06-.4-5.16,1.27.54,8.29,7.24,9.59,6.18l-3.1-9.26,17.93-2.48c.35,1.43-.27,1.01-.78,1.42-5.63,4.34-6.45,8.17-10.21,11.57-3.17,2.88-9.65,3.13-13.76,5.21-5.92,3.01-9.35,10.36-17.27,7.14,1.58,4.44,7.08,6.08,11.37,5.5,5.51-.73,9.21-6.76,15.2-6.11-1.9,7.88,4.85,16.2,11.94,19.26,7.6,3.28,13.57,2.1,21.43,1.13l-4.86-5.34-.7-2.7h8.96c.22,0,3.78-.7,2.77-1.84-7.94-3.19-5.23-13-.87-18.5,6.7-8.44,20.18-9.89,26.85-18.92,11.44,1.06,23.22,7.67,30.58,16.38,7.15,8.47,9.18,22.55,12.65,33.08,5.26,15.98,11.72,31.58,23.4,44.01-2.13,13.2.63,25.95,9.94,35.71-4.67,5.25-8.72,11.01-13.23,16.39-5.43,6.47-31.3,36.11-37.85,36.94-1.86.24-5.78-.68-8.5-.48-2.82.2-7.57,1.97-9.87,1.81-1.94-.12-6.16-3.07-9.46-3.51-8.58-1.17-16.82,1.06-23.58,6.37-2.19,1.74-5.19,5.9-7.3,6.92-4.68,2.28-6.84,1.24-14.38,3.54-2.49.77-3.82,1.42-8.52,3.61-18.91,8.82-17.53,7.78-21,9.67-1.73.96-3.7,2.1-5.82,3.49-13.13-16.64-25.67-35.26-36.97-56.04-25.64-47.16-37.41-91.63-43.1-125.07-2.25,10.95-.83,25.04.61,36.07,9.67,73.73,44.08,140.14,96.23,188.89.11.12.21.23.32.32,29.32,28.35,73.67,62,133.39,80.6,31.27,9.73,64.52,14.97,99,14.97,105.19,0,198.98-48.83,259.93-125.05.13-.16.26-.31.38-.47,23.61-28.82,42.01-61.91,54.2-97.82,3.97-10.47,7.45-21.45,10.34-32.97,36.02-143.69-44.71-273.2-106.89-320.91ZM1153.56,1474.71c1.25,1.63-5.8.98-7.14.05-2.65-1.86-6.29-13.03-10.15-15.5,8.64,1.61,8.62,13.73,17.29,15.45ZM1100.81,1398.26c1.99,3.83,2.92,7.63,3.32,10.94,2.96-1.55,2.6-5.31,3.41-8.04,11.72,3.32,22.66,3.3,33.46,9.79,2.76,1.66,9.66,6.21,7.94,9.97-3.08,6.74-11.69-2.57-15.53-4.23-5.43-2.36-15.95-1.51-20.02,3.01l10.52,2.47c-.25,15.6,16.52,13.86,26.24,7.5l17.63,4.26-8.03,4.93c6.65,1.15,11.52-4.05,18.08-2.93,10.69,1.8,13.33,15.89,4.47,21.25-2.86.03-3.99-4.02-4.43-4.13-1.69-.41-4.88.19-7.14-.14-2.89-.4-5.71-2.74-7.64-2.92-1.99-.18-3.8.88-6.59.47-4.02-.61-8.69-3.98-12.65-5.27-9.07-2.99-18.2-2.39-27.36-.15.47-1.18,1.2-2.25,2.13-3.12,1.21-1.12,2.64-1.33,3.43-2.43-10.01-.48-15.27,6.88-5.51,13.23,5.42,3.53,10.84,5.26,15.41,10.54,4.53,5.23,6.87,15.45,12.97,17.93,1.97.81,4.65,1.03,6.73,1.6.57,3.16-.57,5.69-3.64,6.75l-1.86-3.71c.65,5.43-4.52,7.81-9.27,7.41,1.54-3.06.07-6.24-.62-9.26l-6.18,3.09c2.03-11.43-2.97-19.04-11.79-25.6-6.36-4.72-14.65-7.37-18.99-14.37-3.42-5.5-4.27-11.34-1.97-17.5-6.31,2.6-6.88,10.21-5.57,16.05l-3.8-6.99c-2.95-8.54-.81-14.95,5.66-20.8-2.69-.24-5.66-2.59-7.7-4.35-.62-.53-4.76-4.25-4.03-4.92l15.14,4.3c-.45-16.81-20.65-19.58-26.27-33.97,3,.46,21.91,3.6,30.05,19.34ZM1139.97,1428.36c-.29.4-.75.91-1.43,1.32-2.01,1.2-5.1.95-7.06-.99-1.24-1.21-1.79-3.19-1.39-5.89,2.95,3.2,4.77,6.54,9.88,5.56ZM777.82,1506.53c.79-.88,7.27-11.61,8.65-10.19l-5.85,10.52c-1.61,1.9-3.33,2.78-5.89,2.45.71-1.24,2.06-1.64,3.09-2.78ZM831.29,1434.55c-4.49,5.15-12.07,8.18-13.77,15.27-.27,1.11-.81,3.3.78,3.27,4.58-.03,9.89-2.69,14.52-3.1-3.68,5.18-8.77,8.15-14.82,9.9,8.97,6.07,9.06,16.12,3.35,24.67-.71,1.05-2.59,3.6-3.97,3.74.8-3.56,2.71-6.54,1.3-10.27-.32-.84.21-1.05-1.29-.85-5.78,15.9-26.05,22.91-22.89,42.64l-6.17-3.7c-.13,3.64-.35,6.78,1.86,9.87-4.38-.51-10.12-2.57-9.28-8.02-.84.05-1.49,2.47-1.61,3.07-.25,1.42.86,3.33-.54,3.1-.97-1.14-2.61-2.2-3.33-3.47-3.89-6.94,2.41-4.96,6.53-6.9,5.43-2.57,7.56-10.11,11.06-14.91,3.58-4.92,13.92-12.59,13.88-18.29-.06-5.46-7.95-7.97-12.39-6.47l5.26,3.08,1.54,2.47c-3.63-.96-7.06-1.49-10.85-1.26-8.83.53-14.4,6.53-22.93,7.21-1.48.12-2.86-.81-4.71-.26-.93.27-2.31,1.97-3.61,2.59-3.93,1.85-7.94,3.08-12.24,1.62l-1.29,4.31c-7.78-.04-9.18-13.89-3.93-17.22,7.25-4.58,15.56.34,23.1-.09l-8.66-4,16-5.58c11.16,6.12,21.11,4.47,23.54-9.27l9.29-2.16c-.29-.96-2.48-1.56-3.38-1.87-4.98-1.69-10.46-2.96-15.36-.48-3.94,2-8.77,9.52-13.11,4.2-.69-1.69,1.99-4.87,3.1-6.18,7.07-8.3,22.29-10.49,32.45-12.97-1.27,3.03-2.7,6.9-.3,9.88,2.37-3.97,4.59-7.92,8.37-10.76,3.89-2.91,8.72-4.03,12.97-6.2,1-.51,6.42-4.35,6.77-4.03-1.72,2.45-3.27,5.15-5.24,7.42ZM778.44,1465.42c3.5-2.05,7-4.11,10.5-6.16.31,6.91-4.82,8.46-10.5,6.16ZM819.06,1685.28c-1.76,1.09-7.34,1.45-9.3,3.98l-9.07,8.54c1.59-12.1,14.27-25.09,27.19-21.62.27.36-4.93,3.94-5.59,4.6-.94.95-2.75,4.19-3.23,4.5ZM841.93,1687.45c-7.52,1.16-15.97,8.46-21.46,13.44,2.52-15.16,18.98-26.61,33.9-21.54.67,10.12-6.17,7.13-12.44,8.1ZM1057.3,1413.81c2.04-1.2,4.15-2.33,6.35-3.38-.17,1.48-1.06,2.02-.82,3.85.28,2.19,2.04,2.9,2.37,4.81-7.85,6.25-16.13,13.97-24.08,23.48-28.77,34.4-36.88,72.51-39.53,93.95,2.17-34.34,11.44-96.59,55.71-122.71ZM891.22,1414.14c3.36-2.51,4.65-7.2,8.64-9.28,2.8-1.46,5.89-1.39,8.98-1.83-1.96,2.24-5.37,3.75-7.44,5.83-5.24,5.29-5.35,10.24-15.43,8.37,1.28-1.67,3.47-1.75,5.25-3.09ZM934.8,1404.88c1.63-4.21,4.01-8.53,1.55-12.98-4.56,10.01-15.57,14.06-22.26,22.24-4.12,5.01-7.41,12.1-8.35,18.54l-4-3.08c-2.82,3.81-3.47,8.58-1.56,12.97-4.79-1.3-9.85-6.65-8.03-11.75l-2.78,3.7c-2.46-1.6-4.94-9.63-1.16-10.34.98-.19,3.19.67,5.34.32,6.72-1.09,12.76-11.69,17.75-16.23,3.34-3.04,12.07-8.09,13.54-11.8,2.78-6.92-1.68-12.7-8.58-13.84,2.74,2.67,4.07,5.37,4.31,9.27-3.28-3.02-6.81-5.18-11.39-5.59-8.85-.81-17.34,4.45-27.17,3.68-1.27-.1-2.55-1.14-3.67-1.04-1.72.19-5.15,2.66-8.12,2.95-2.82.26-4.25-.22-6.75-1.29l-3.15,3.8c-3.36,0-7.58-15.15,1.41-18.42,7.5-2.74,12.55,2.54,19.92,1.69l-6.8-4.32c4.29-.19,12.23-5.76,16.05-4.01,1.44.66,3.83,3.88,6.58,5.16,9.1,4.22,20.44,1.48,20.66-9.78,3.07-.38,7.16-1.24,9.23-3.73-6.79-2.21-13.96-3.86-20.8-.73-5.26,2.41-7.58,9.7-13.51.72l-2.13,1.24c-.64-10.19,17.11-14.95,25-15.46,3.92-.26,16.88,1.1,20.41,2.48.59.24,1.22.28,1.54.96-.95,3.1-3.46,6.12-2.16,9.54,5.19-4.97,10.1-11.16,17.01-13.89,6.83-2.69,13.28-.88,20.38-2.17-4.81,5.49-13.24,6.6-19.11,10.25-5.56,3.46-7.7,8.27-11.49,13.23l.62,1.22c4.94-1.07,10-1.11,14.23-4.3,1.39-.44-2.53,4.46-3.07,4.97-3.59,3.37-9.79,5.69-14.55,6.78,1.5,3.53,3.93,6.83,4.32,10.8.75,7.35-3.65,13.95-9.26,18.24ZM901.43,1372.12c3.09-2.27,6.18-4.53,9.28-6.8.68,2.39-.09,4.94-1.95,6.47-2.05,1.69-5.04,1.84-7.33.33ZM958.92,1454.03c-2.36,2.89-11.32,5.21-14.86,3.37,1.25-5.15,2.48-10.29,3.72-15.45,1.86.06,4.24-.04,6.97-.6,3-.62,5.45-1.61,7.23-2.48.53.58-2.06,13.93-3.06,15.16ZM952.4,1575.43c-3.94,3.06-14,6.78-18.07,2.94-.76-.71-3.72-6.83-4.39-8.27-1.15-2.49-1.86-5.2-3.18-7.63,6.92,2.43,13.65,1.5,19.96-1.98,1.62-.9,8.49-6.83,9.1-6.4,5.43,9.41,5.24,14.59-3.42,21.34ZM948.39,1435.78c.04-2.64.08-5.27.13-7.92,1.79-1,4.03-2.48,6.28-4.62,2.96-2.83,4.81-5.73,5.94-7.86,4.23,11.88,1.38,20.57-12.35,20.4ZM936.77,1477.64c.08-.5,1.14-3.7,2.24-6.82.56-1.56,1.67-3.63,2.57-6.36,1.83.5,4.52,1,7.77.87,3.58-.15,6.44-1.01,8.31-1.74-1.13,3.38-1.12,7.75-2.28,11.01-1.85,5.21-13.19,8.87-17.96,5.53-.52-.73-.79-1.59-.65-2.49ZM933.57,1485.83c6.09,4.04,12.82,2.65,19.15,0-1.38,4.05-1.07,9.22-1.99,13.15-1.1,4.7-11.85,7.36-16.11,6.49-10.71-2.21-1.97-13.1-1.05-19.64ZM927.38,1509.93c7.32,4.71,15.07,2.25,22.25-1.23v13.28c0,6.18-13.75,9.05-18.71,8.2-1.37-.23-5.91-2.02-6.05-3.22-.63-5.05,1.48-12.07,2.51-17.03ZM942.55,1536.54c1.51-.48,7.74-4.29,8.31-3.75l2.37,14.4c-3.4,6.14-23.33,13.42-27.38,6.6-1.91-3.23-1.23-14.37-2.17-18.52,6.52,2.57,12.01,3.47,18.87,1.27ZM887.22,1488.93c-11.33-14.02-24.01-23.15-33.96-29.01,4.21-1.6-.27-6.79-2.51-8.69,4.86,1.14,13.23,3.59,21.96,9.24,39.72,25.75,41.64,88.39,40.49,88.67-.81.21-2.09-30.63-25.98-60.21ZM957.01,1629.16l-2.43-8.61c.39-.43,8.59,4.11,9.89,4.63,10.71,4.31,22.5,5.61,33.97,5.27-3.11,10.11-6.78,20.57-12.13,29.56-26.59-.08-52.99,2.93-79.32,6.27,15.35-13.88,32.66-25.79,50.02-37.12ZM926.77,1700.28c2.18-9.52,6.87-16.8,15.84-20.92,4.44-2.04,11.87-4.73,15.66-.72-4.16.89-7.56,5.91-10.54,7.69-2.88,1.7-7.11,2.3-10.42,4.41-3.87,2.47-6.88,6.79-10.54,9.54ZM981.91,1694.6c-3,.27-5.16-3.8-7.27-4.2-5.42-1.05-13.71,4.17-17.89,7.42l-9.59,8.63c1.74-13.3,13.54-25.39,27.49-24.09,4.75.44,6.79,2.83,11.09-1.9,4.44-4.87,10.14-18.03,13.24-24.46,5.01-10.39,9.38-21.17,14.07-31.73l-.05-1.23c-.79-1.88-11.75-6.45-14.34-7.94-8.96-5.16-14.7-11.14-17.68-18.13-4.58-10.75-6.3-26.3.49-30.17,1.35-.77,4.7-2.02,11.43,1.22,5.62,2.13,12.74,4.3,18.13.68,7.04,6.08,13.16,14.19,12.14,24.05l-9.58-6.18c-.63.06-.31.96-.18,1.4,1.39,4.97,8.47,20.31,11.63,24.23,2.7,3.35,8.96,7.17,7.92,12.22-8.95,14.66-17.05,29.87-25.98,44.53-5.11,8.41-14.02,24.67-25.07,25.65ZM1018.85,1691.3c-3.93-1.08-7.53-.59-11.39-1.46-1.26-.89.36-3.64,1.18-4.4,5.93-5.65,18.61,2.37,18.85,9.89-3.11-.99-5.36-3.12-8.64-4.03ZM1049.92,1661.23l-23.04-1.12c-.52-.47,2.9-5.85,3.45-6.75,4.16-6.88,14.67-20.14,16.16-27.1.28-1.26.17-2.57.17-3.85l4.42,8.23c4.35,4.99,9.69,9.88,15.97,12.17-3.51,7.62-10.58,13.32-17.13,18.42ZM1237.49,1530.52c32.15-55.51,4.32-132.54-32.03-179.08-56.67-72.53-141.86-114.16-233.87-117.77-6.78-.28-13.63.29-20.43.02-.74-.03-2.29.47-2.14-.62,70.9-9.2,139.67,10.58,198.93,48.57,62.17,39.84,116.27,101.2,124.9,177.3-1.63-.02-3.19-3.28-4.94-2.47.64.62,1.23,1.29,1.54,2.16,1.18,3.38,4.63,14.65,4.63,17.63v13.28l-6.79-8.03c4.13,11.16,4.61,22.34,2.45,33.98l-6.16-8.03c1.82,10.63,1.92,20.73-2.19,30.87-.31.75-.65,2.48-1.52,2.5-.53-2.31-1.38-5.08-2.36-7.23-.52-1.13-1.51-3.24-2.58-3.89.89,7.63-.58,16.53-4,23.52-.45.89-6.41,10.81-7.75,9.23-.01-3.19.32-7.8-2.47-9.88-.61,6.58-2.97,14.44-7.48,19.4-1.34,1.46-8.51,7.1-10.15,7.78-.83.35-.98.01-.82-.81.49-2.49.76-4.27.47-6.86-.07-.59-.27-2.31-1.18-2.21-2.73,9.62-12.78,15.39-22.25,16.68-.5-.47,5.26-11.23,1.25-12.97-2.06,7.65-9.82,11.96-17.32,12.98-.28-3.68.38-7.83,0-11.44-.58-5.48-3.66-11.05-4.93-16.38,25.02,5.07,46.74-6.73,59.19-28.23ZM1098.67,1637.45c-3.23-3.75-8.5-12.87-7.52-17.82.45-2.34,6.99-4.35,8.98-5.79,11.62,21.3,34.15,25.77,56.53,27.73-2.57,10.93-8.5,20.72-14.01,30.31l-62.01-6.83,21.55-23.91c.2-1.24-2.6-2.62-3.52-3.69ZM1093.61,1703.99l-1.23-.32c1.76-9.49,7.15-17.67,16.27-21.42,4.09-1.69,10.95-3.21,14.63-.2-2.86,1.35-5.95,5.09-8.42,6.41-1.58.85-3.52.85-5.17,1.63-6.53,3.08-12.65,7.34-16.08,13.9ZM1142.88,1695.82c-1.56-.46-2.45-3.18-4.48-3.57-6.76-1.3-15.61,5.68-19.76,10.49l-4,5.57c-.73-10.13,8.93-22.12,18.9-23.43,6.52-.86,11.03,3.24,16.3-2.84,4.34-5.01,17.03-34.36,19.48-41.72,2.36-7.11-.6-7.72-6.76-9.9-21.31-7.53-44.08-5.72-50.23-34.44-3.64-16.99,6.59-38.67,19.61-40.06,11.09-1.17,21.09,12.68,22.5,14.63,1.78,2.47,5.03,7.1,6.17,13.96,1.46,8.71-.96,17.83-6.93,25.23,0,.81,6.57,5.51,7.73,6.38,5.55,4.14,15.6,9.45,19.99,13.99.87.9,2.32,2.79,2.15,4.08-.31,2.27-5.81,13.26-7.21,16.25-6.51,13.98-14.24,27.45-21.2,41.2-3.24,2.75-7.86,5.48-12.26,4.18ZM1185.08,1700.89c-1.98-1.8-3.72-2.93-6.19-4.01-2.45-1.06-10.21-2.44-11.12-3.09-3.07-2.21,3.47-5.18,5.27-5.18,5.41.02,12.62,6.47,12.04,12.28Z"/>
  <path d="M927.61,927.17c.91-11.12,5.54-23.52,6.46-34.91.21-2.56,1.83-11.92-2.12-11.93-.8,16.77-12.41,30.76-14.7,47.37-3.19,23.13,3.87,46.11,19.01,63.67-6.51-21.79-10.54-41.09-8.65-64.2Z"/>
  <path d="M1189.61,661.89c14.53,26.43,30.77,43.71,33.41,74,.97,11.21-.23,20.59-1.41,26.82-3.64-7.88-8.48-16.91-14.9-26.43-6.4-9.48-12.94-17.31-18.86-23.63,18.01,42.6,4.55,87.4,17.44,130.64,39-41.86,81.26-94.72,76.15-155.65-5.7-67.88-98.47-193.56-143.74-246.05-9.85-11.43-43.38-50.15-55.96-52.97-21.89-4.9-62.14,33.76-81.74,36.6-19.61-2.84-59.86-41.5-81.75-36.6-12.58,2.82-46.11,41.54-55.96,52.97-45.27,52.49-138.04,178.17-143.74,246.05-5.11,60.93,37.16,113.79,76.16,155.65,12.88-43.24-.58-88.04,17.43-130.64-5.92,6.32-12.46,14.15-18.86,23.63-6.42,9.52-11.26,18.55-14.9,26.43-1.18-6.23-2.38-15.61-1.4-26.82,2.63-30.29,18.87-47.57,33.4-74,8.19-14.9,18.16-36.92,24.64-66.85,8.45,27.56.12,56.77-9.78,82.77,8.24-8.76,13.71-20.3,17.1-32.6,4.28-15.52,5.13-28.68,4.66-37.07,1.78,7.71,3.16,16.44,3.64,26.05,1.63,32.82-8.09,59.31-15.76,75.29,8-8.13,18.76-21.17,26.47-39.62,3.8-9.07,6.05-17.51,7.41-24.7-1.02,36.31-5.11,63.32-8.81,81.67-1.92,9.55-5.52,25.54-4.7,47.22.55,14.58,2.89,26.49,4.84,34.4,1.5-5.65,3.26-11.48,5.35-17.48,7.88-22.66,18.23-41.47,28.39-56.54-2.52,7.1-5.25,18.28-3.36,31.49.52,3.62,1.32,6.93,2.23,9.86,2.16-10.63,9.75-40.68,36.8-60.29,13.73-9.96,26.69-13.53,36.73-15.36,11.12-2.02,22.5-3.23,33.77-3.47,11.26.24,22.64,1.45,33.77,3.47,10.03,1.83,22.99,5.4,36.72,15.36,27.05,19.61,34.64,49.66,36.8,60.29.92-2.93,1.71-6.24,2.23-9.86,1.9-13.21-.84-24.39-3.36-31.49,10.17,15.07,20.51,33.88,28.4,56.54,2.08,6,3.84,11.83,5.34,17.48,1.95-7.91,4.29-19.82,4.84-34.4.82-21.68-2.77-37.67-4.7-47.22-3.7-18.35-7.79-45.36-8.81-81.67,1.36,7.19,3.61,15.63,7.41,24.7,7.72,18.45,18.47,31.49,26.48,39.62-7.68-15.98-17.39-42.47-15.77-75.29.48-9.61,1.86-18.34,3.64-26.05-.47,8.39.38,21.55,4.66,37.07,3.4,12.3,8.86,23.84,17.1,32.6-9.9-26-18.23-55.21-9.78-82.77,6.48,29.93,16.45,51.95,24.64,66.85ZM1105.05,493.81c-13.94,15.15-32.29,23.84-52.21,14.13,13.4-14.78,33.54-30.13,52.21-14.13ZM1020.81,490.1c16.78-9.61,43.34-16.23,61.19-25.45l3.49,6.26c-18.99,6.21-39.55,35.04-61.57,30.04-7.86-1.77-11.5-6.04-3.11-10.85ZM917.99,464.65c17.86,9.22,44.41,15.84,61.19,25.45,8.39,4.81,4.75,9.08-3.11,10.85-22.02,5-42.57-23.83-61.57-30.04l3.49-6.26ZM947.16,507.94c-19.92,9.71-38.28,1.02-52.22-14.13,18.67-16,38.81-.65,52.22,14.13ZM981.04,673.41c.21-2.33.62-4.14.95-5.37.36-1.27.78-2.44.34-2.77-.4-.31-1.33.28-1.63.46-2.09,1.33-12.5,7.64-27.01,16.42l3.28-10.87c-17.63,12.75-31.12,28.06-43.57,45.71,2.16-14.33,4.56-20.4,6.53-23.1.3-.4,1.49-1.96,1.12-2.41-.65-.78-5.63,2.17-6.36,2.86-10.96,10.6-21.83,26.32-28.53,40.06.76-12.37.31-15.37-.32-15.46-2.41-.35-15.38,40.13-18.63,45.5-.96,1.59-2.01,3.1-2.01,3.1-1.1,1.59-2.12,2.91-2.94,3.9,1.77-26.63,5.78-55.27,17.33-79.55,12.96-27.21,54.1-69.02,87.28-58.84,10.1,3.1,19.15,24.99,32.51,28.42-6.11,3.99-12.22,7.96-18.34,11.94ZM1137.73,771.44c-.81-.99-1.83-2.31-2.94-3.9,0,0-1.05-1.51-2.01-3.1-3.25-5.37-16.22-45.85-18.63-45.5-.63.09-1.08,3.09-.32,15.46-6.7-13.74-17.57-29.46-28.53-40.06-.72-.69-5.71-3.64-6.36-2.86-.37.45.82,2.01,1.12,2.41,1.98,2.7,4.37,8.77,6.54,23.1-12.46-17.65-25.95-32.96-43.58-45.71l3.28,10.87c-14.51-8.78-24.92-15.09-27.01-16.42-.3-.18-1.22-.77-1.63-.46-.43.33-.02,1.5.34,2.77.33,1.23.75,3.04.95,5.37-6.11-3.98-12.23-7.95-18.34-11.94,13.36-3.43,22.41-25.32,32.51-28.42,33.18-10.18,74.32,31.63,87.28,58.84,11.55,24.28,15.56,52.92,17.33,79.55ZM1136.61,577.58c-17.91,15.04-22.73,11.05-42.4,2.27,12.17,22.03,9.06,47.85,13.05,71.82-4.66,1.01-4.94-2.38-6.9-5.06-9.21-12.59-50.51-73.93-61.81-75.57-10.85-1.59-20.67,13.82-18.36,24.02,6.43-4.31,6.86-17.15,17.26-15.12,1.66,6.5,6.34,14.13,6.53,20.83.36,13.24-12.33,12.41-19.57,19.23-8.49,7.99-9.58,22.15-24.41,24.75-14.84-2.6-15.93-16.76-24.42-24.75-7.24-6.82-19.93-5.99-19.57-19.23.19-6.7,4.87-14.33,6.53-20.83,10.4-2.03,10.83,10.81,17.26,15.12,2.32-10.2-7.5-25.61-18.36-24.02-11.3,1.64-52.59,62.98-61.81,75.57-1.95,2.68-2.24,6.07-6.9,5.06,3.99-23.97.88-49.79,13.06-71.82-19.68,8.78-24.5,12.77-42.41-2.27-11.6-9.73-11.67-11.97-5.46-26.06,8.33-14.51,16.67-29.01,25-43.52,11.12,12.51,27.31,21.85,44.63,19.57-1.65,2.01-3.39,3.51-5.03,4.65-13.92,9.56-33.4,1.05-36.32-.28,17.56,18.27,45.2,8.26,64.24-2.15-4,7.24-7.98,14.47-11.98,21.71l24.71-14.89,18.81,21.44c2.68-11.78-12.61-22.53-7.6-32.65,5.25-10.62,11.84-.19,16.3,4.34l-4.17-17.25c4.58-2.37,9.12-4.62,13.49-5.9,4.36,1.28,8.9,3.53,13.48,5.9l-4.17,17.25c4.46-4.53,11.05-14.96,16.3-4.34,5.01,10.12-10.28,20.87-7.6,32.65l18.81-21.44,24.71,14.89c-4-7.24-7.98-14.47-11.98-21.71,19.04,10.41,46.69,20.42,64.25,2.15-2.93,1.33-22.41,9.84-36.32.28-1.65-1.14-3.38-2.64-5.04-4.65,17.32,2.28,33.51-7.06,44.63-19.57,8.33,14.51,16.67,29.01,25,43.52,6.21,14.09,6.15,16.33-5.46,26.06Z"/>
  <path d="M1068.06,880.33c-3.95,0-2.32,9.37-2.12,11.93.92,11.39,5.55,23.8,6.46,34.91,1.89,23.11-2.15,42.41-8.65,64.2,15.14-17.57,22.21-40.54,19.01-63.67-2.29-16.61-13.91-30.6-14.7-47.37Z"/>
  <path d="M1054.64,757.67c-9.11-13.18-20.5-19.01-18.85-22.8,2.03-4.65,20.76.39,21.07-.96.38-1.61-24.99-13.56-56.86-14.83-31.87,1.26-57.24,13.22-56.86,14.83.31,1.35,19.04-3.69,21.07.96,1.66,3.79-9.74,9.62-18.85,22.8-7.13,10.33-9.98,21.01-11.25,29,2.23-5.96,7.37-17.17,18.57-26.96,7.63-6.66,15.32-10.27,20.59-12.22-4.29,6.47-11.63,19.78-10.31,36.5.27,3.35.85,6.43,1.59,9.22-.19-14.18,19.62-47.07,35.44-53.24,15.82,6.18,35.63,39.06,35.44,53.24.74-2.79,1.33-5.87,1.59-9.22,1.32-16.72-6.02-30.03-10.31-36.5,5.27,1.96,12.96,5.56,20.59,12.22,11.2,9.79,16.34,20.99,18.57,26.96-1.27-7.98-4.11-18.67-11.25-29Z"/>
  <path d="M1819.97,1324.95l-18.57-92.49c-10.52-14.15-37.56-23.59-45.69-39.23-16-30.79-15.27-83.35-26.19-115.34-1.69-4.92-14.39-14.51-18.71-20.48-29.12-40.27-41.49-118.39-58.7-165.59l-67.61-82.79c-1.79-13.09,11.05-41.97,5.06-52.82-1.13-2.04-31.67-23.94-36.94-28.38-13.76-11.54-27.47-23.37-40.39-35.87-7.38-3.39-20.94,3.26-29.34,3.24-17.1-.04-32.34-12.18-44.68-22.8-8.05-6.94-33.48-36.76-39.2-39.18-12.23-5.21-26.56,5.56-38.19-1.01-6.29-44.27-34.1-81.67-52.97-121.24-22.65-47.53-42.89-97.29-59.62-147.23-10.49-31.33-20.41-85.59-33.82-112.07-5.48-10.8-31.14-38.18-40.69-48.58-43.26-47.07-76.74-74.87-135.35-102.01-12.41-5.74-25.44-11.03-38.37-15.73-12.94,4.7-25.97,9.99-38.38,15.73-58.61,27.14-92.09,54.94-135.34,102.01-9.56,10.4-35.22,37.78-40.69,48.58-13.42,26.48-23.34,80.74-33.83,112.07-16.73,49.94-36.97,99.7-59.62,147.23-18.87,39.57-46.67,76.97-52.97,121.24-11.63,6.57-25.95-4.2-38.19,1.01-5.72,2.42-31.14,32.24-39.2,39.18-12.34,10.62-27.57,22.76-44.68,22.8-8.4.02-21.96-6.63-29.34-3.24-12.92,12.5-26.62,24.33-40.39,35.87-5.27,4.44-35.81,26.34-36.94,28.38-5.99,10.85,6.85,39.73,5.06,52.82l-67.61,82.79c-17.21,47.2-29.57,125.32-58.7,165.59-4.31,5.97-17.02,15.56-18.71,20.48-10.91,31.99-10.19,84.55-26.19,115.34-8.13,15.64-35.17,25.08-45.68,39.23l-18.57,92.49c-5.21,12.7-26.22,30.36-29.3,42.56-2.25,8.94-.99,34.6-.51,45.18,3.87,85.56,29.25,164.39,62.75,242.11,4.52,10.5,17.59,30.04,19.48,39.3,3.26,15.93.57,41.08,2.87,58.1,3.1,23.05,78.61,99.7,98.82,118.93,9.36,8.91,34.4,33.95,43.5,39.24,5.19,3.02,11.85,2.83,17.57,4.21l604.79.07,604.78-.07c5.72-1.38,12.38-1.19,17.57-4.21,9.1-5.29,34.14-30.33,43.5-39.24,20.22-19.23,95.72-95.88,98.82-118.93,2.3-17.02-.39-42.17,2.87-58.1,1.89-9.26,14.96-28.8,19.49-39.3,33.49-77.72,58.87-156.55,62.74-242.11.48-10.58,1.75-36.24-.51-45.18-3.08-12.2-24.08-29.86-29.29-42.56ZM1581.11,838.71c28.07,18.45,52.05,65.52,52.05,65.52,26.38,55.97,27.07,138.45,76.7,184.6l20.15,98.51c-15.38-15.63-23.97-39.54-33.04-59.48-3.26-7.19-4.46-15.77-7.86-22.61-6.54-13.14-35.07-34.44-47.67-43.81-10.8-8.03-23.11-17.59-35.52-22.19,4.47-.96,9.76-1.63,15.68-1.49,19.59.47,34.09,9.54,40.92,14.56l-28.33-82.73c-10.6,4.78-21,10.61-31.72,15.6-12.01,5.59-23.69,8.24-33.58,10.51,1.4-1.09,3.46-2.74,5.93-4.77,12.91-10.63,36.15-29.77,42.17-41.99,9.9-20.08-10.12-55.07-41.6-86.05-6.36,12.53-18.75,32.13-41.31,46.85-6.45,4.21-12.75,7.39-18.57,9.8,11.93-15.33,20.19-28.62,25.45-37.76,6.8-11.82,13.33-24.89,18.14-35.01,4.82-10.12,7.94-17.3,7.94-17.3,0,0,13.81,9.07,14.07,9.24ZM1724.61,1313.61c6.27,13.43,13.01,44.65,14.1,124.15-18.86-100.65-36.89-134.89-50.42-146.62-3.38-2.93-16.2-13.55-27.61-31.18-3.18-4.91-23.71-46.54-22.09-48.67,35.76,21.55,68.83,45.24,95.78,77.33-6.96-.83-12.66-1.5-16.64-1.97-3.96-.46-6.2-.73-6.2-.73,0,0,12.25,25.92,13.08,27.69ZM1361.92,654.87c9.33.68,21.7-3.59,30.55.12,4.53,1.9,9.83,12.37,14.1,16.39,25.71,24.16,56.95,54.89,95.81,43.52l4.95,1.54,58.94,49.85c-10.06,28.14-25.57,62.18-50.01,97.32-10.72,15.39-21.69,28.89-32.29,40.63,19.58-38.73,38.1-79.18,46.93-121.9-5.75-3.37-32.37-24.84-36.72-23.77-2.04.5-22.3,27.9-26.51,32.5-6.91,7.57-16.29,17.31-23.93,23.98-3.13,2.74-29.57,23.63-31.62,21.69,21.72-31.38,50.21-60.37,60.94-97.91l-39.26-12.18c-9.96,18.2-18.65,37.26-30.79,54.18-1.87,2.62-19.95,27.03-23.55,23.26,6.2-14.06,14.89-27.07,20.65-41.39,5.85-14.53,9.59-29.73,14.08-44.71l-32.54-31.47c-10.78,43.44-32.08,88.16-55.72,126.13-6.91,11.09-14.93,24.62-24.85,32.82,29.14-60.58,50.54-123.82,60.84-190.6ZM1451.44,1173.22c-2.63,4.5-6.93,11.18-13.36,18.3-8.37,9.26-21.23,23.5-40.68,26.42-2.5.39-23.68,3.64-31.18-8.07-1.72-2.7-2.72-6.05-2.7-10.16,10.95,10.92,25.41,13.42,34.14,7.56,5.26-3.53,10.73-11.64,8.63-19.5-1.58-5.92-6.69-8.86-7.26-9.18-6.48-3.6-13.03-.94-13.85-.59,16.51,1.17,21.64,12.33,8.94,23.41-7.09,6.18-26.27-4.98-25.56-9.74.66-4.34,38.35-50.19,44.36-54.6,41.61-30.56,62.66,28.78,63.99,61.3-12.36,3.56-19.04,14.83-26.59,24.39-12.5-3.23-16.06-7.15-16.62-10.44-1.39-7.96,14.45-14.09,17.39-31.25.54-3.21.5-5.95.35-7.85ZM1353.65,1098.68c-2.34-6.69-11.5-11.21-21.5-8.64,12.44,2.89,17.39,7.87,17.16,12.29-.34,6.32-20.63,13.37-30.66,6.06-1.27-.93-2.71-1.98-3.42-3.9-3.22-8.66,13.19-21.85,20.5-27.73,5.19-4.16,12.77-9.51,22.93-14.38,39.74-7.03,53.29,25.04,62.63,56.79l-.05,3.32c-12.74,2.93-21.34,11.49-28.97,21.32-9.23,11.92-18.26,20.91-23.1,29-8.67-21.59-5.31-31.95-1.83-37.12,1.93-2.87,3.93-4.04,14.79-13.79,6.44-5.79,11.67-10.57,15.1-13.74l-19.28,9.6,3.63-14.42c-12.86,17.96-41.04,45.01-63.83,27.64-4.04-3.07-16.41-20.33-3.79-17.92,9.74,1.87,19.2,8.38,28.23,5.58,4.52-1.4,7.24-4.46,8.15-5.59,2.86-3.55,5.08-9.35,3.31-14.37ZM1180.17,833.06c.57,5.18,1.54,10.48,2.97,16.01,6.49,25.07,27.65,50.95,30.59,76.11,2.13,18.23-.33,37.56-4.14,55.3-.57-5.22-1.34-10.56-2.32-15.99-8.28-46.11-29.08-82.99-49.9-110.29-5.97,40.77,28.16,67.84,28.47,107.78.15,18.15-5.96,48.04-17.58,62.05,4.18-21.91,6.58-41.19,1.08-63.16-7.18-28.69-32.17-51.77-33.78-82.73-6.4,2.66-4.76,14.39-4.3,20.66,1.77,24.15,19.25,45.06,21.75,67.51,3.72,33.43-13.71,56.8-15.22,87.15-.66,13.34,3.23,25.08,4.29,38.07-43.7-35.56-4.76-82.04-11.93-126.28l-37.05,65.3c-4.96-10.92-4.04-23.47-1.09-34.83-15.94,16.66-8.56,42.87-15.11,64.35-6.15,20.19-30.08,28.89-32.26,52.66-.67,7.24.1,16.24-1.97,16.64-2.36.44-7.01-10.56-8.79-17.81-8.16-33.35,8.43-74.82,10.35-110.29.16-2.92,1.57-13.61-2.27-14.24l-10.29,53.94-31.67,90.98-31.68-90.98-10.29-53.94c-3.84.63-2.42,11.32-2.26,14.24,1.91,35.47,18.5,76.94,10.34,110.29-1.78,7.25-6.43,18.25-8.79,17.81-2.06-.4-1.3-9.4-1.97-16.64-2.18-23.77-26.1-32.47-32.26-52.66-6.55-21.48.83-47.69-15.1-64.35,2.94,11.36,3.86,23.91-1.1,34.83l-37.04-65.3c-7.18,44.24,31.76,90.72-11.94,126.28,1.06-12.99,4.95-24.73,4.29-38.07-1.51-30.35-18.94-53.72-15.22-87.15,2.5-22.45,19.99-43.36,21.75-67.51.46-6.27,2.11-18-4.29-20.66-1.62,30.96-26.61,54.04-33.78,82.73-5.51,21.97-3.11,41.25,1.07,63.16-11.62-14.01-17.73-43.9-17.58-62.05.32-39.94,34.44-67.01,28.47-107.78-20.82,27.3-41.62,64.18-49.9,110.29-.98,5.43-1.75,10.77-2.32,15.99-3.8-17.74-6.27-37.07-4.13-55.3,2.93-25.16,24.09-51.04,30.58-76.11,1.43-5.53,2.4-10.83,2.97-16.01,1.63-14.66.38-26.98-1.16-35.48-1.81,7.75-4.26,16.27-7.55,25.31-4.4,12.07-9.39,22.52-14.21,31.3-1.2-.42-3.13-1.14-5.44-2.17-5.44-2.45-21.05-10.28-36.81-34-51.09-77-55.81-121.82-55.81-121.82-10.42-98.75,51.32-143.29,153.57-264.48,9.4-11.15,49.86-58.97,59.82-62.2,7.88-2.55,16.58,1.72,23.81,4.77,9.93,4.19,52.76,32.09,63.96,36.77,11.19-4.68,54.03-32.58,63.95-36.77,7.23-3.05,15.93-7.32,23.81-4.77,9.96,3.23,50.42,51.05,59.82,62.2,102.26,121.19,163.99,165.73,153.58,264.48,0,0-4.72,44.82-55.82,121.82-15.75,23.72-31.37,31.55-36.81,34-2.31,1.03-4.24,1.75-5.43,2.17-4.83-8.78-9.81-19.23-14.22-31.3-3.29-9.04-5.74-17.56-7.55-25.31-1.53,8.5-2.79,20.82-1.16,35.48ZM816.53,407.8l87.06-126.29c-11.4,50.95-46.14,95.58-87.06,126.29ZM1096.41,281.51l87.05,126.29c-40.92-30.71-75.66-75.34-87.05-126.29ZM720.39,497.86c19.2-41.67,36.57-86.18,50.97-129.77,10.35-31.31,21.67-91.62,38.66-115.93,32.04-45.8,87.79-96.31,137.09-122.03,10.81-5.65,41.46-21.85,52.89-24.42,11.42,2.57,42.07,18.77,52.88,24.42,49.3,25.72,105.05,76.23,137.09,122.03,17,24.31,28.32,84.62,38.66,115.93,14.4,43.59,31.77,88.1,50.97,129.77,18.95,41.13,64.92,108.89,60.4,152.46-1.77,16.89-9.89,35.29-15.01,51.43-3.72.55-2.33-5.2-2.13-7.57,3.56-42.92,4.11-63.33-14.88-102.77-21.55-44.75-52.93-88.74-75.55-133.48-3.38-6.68-23.18-46.8-20.62-50.13l34.79,52.26c-10.84-32.61-24.27-65.32-35.81-98.09-19.83-56.35-21.75-85.47-62.28-133.17-29.49-34.7-65.17-68.47-107.26-87.05-7.79-3.44-31.01-12.67-41.25-14.6-10.25,1.93-33.47,11.16-41.26,14.6-42.09,18.58-77.76,52.35-107.26,87.05-40.53,47.7-42.45,76.82-62.28,133.17-11.53,32.77-24.97,65.48-35.81,98.09l34.79-52.26c2.56,3.33-17.24,43.45-20.62,50.13-22.62,44.74-54,88.73-75.55,133.48-18.99,39.44-18.44,59.85-14.88,102.77.2,2.37,1.6,8.12-2.12,7.57-5.13-16.14-13.25-34.54-15.01-51.43-4.53-43.57,41.44-111.33,60.39-152.46ZM492.66,716.44l4.95-1.54c38.86,11.37,70.1-19.36,95.81-43.52,4.28-4.02,9.57-14.49,14.1-16.39,8.85-3.71,21.23.56,30.55-.12,10.3,66.78,31.71,130.02,60.84,190.6-9.92-8.2-17.94-21.73-24.85-32.82-23.64-37.97-44.94-82.69-55.72-126.13l-32.54,31.47c4.49,14.98,8.23,30.18,14.09,44.71,5.76,14.32,14.44,27.33,20.64,41.39-3.59,3.77-21.68-20.64-23.55-23.26-12.14-16.92-20.83-35.98-30.79-54.18l-39.26,12.18c10.73,37.54,39.22,66.53,60.94,97.91-2.05,1.94-28.48-18.95-31.62-21.69-7.64-6.67-17.02-16.41-23.93-23.98-4.21-4.6-24.47-32-26.51-32.5-4.34-1.07-30.97,20.4-36.72,23.77,8.83,42.72,27.35,83.17,46.93,121.9-10.6-11.74-21.57-25.24-32.28-40.63-24.45-35.14-39.96-69.18-50.02-97.32l58.94-49.85ZM548.91,1181.07c2.93,17.16,18.77,23.29,17.39,31.25-.57,3.29-4.13,7.21-16.63,10.44-7.55-9.56-14.23-20.83-26.58-24.39,1.33-32.52,22.37-91.86,63.99-61.3,6,4.41,43.7,50.26,44.35,54.6.72,4.76-18.47,15.92-25.56,9.74-12.7-11.08-7.57-22.24,8.94-23.41-.82-.35-7.37-3.01-13.85.59-.56.32-5.68,3.26-7.26,9.18-2.09,7.86,3.37,15.97,8.63,19.5,8.73,5.86,23.19,3.36,34.14-7.56.02,4.11-.98,7.46-2.7,10.16-7.5,11.71-28.68,8.46-31.17,8.07-19.46-2.92-32.32-17.16-40.68-26.42-6.43-7.12-10.74-13.8-13.36-18.3-.15,1.9-.2,4.64.35,7.85ZM622.04,1117.76l-19.27-9.6c3.42,3.17,8.65,7.95,15.09,13.74,10.86,9.75,12.86,10.92,14.8,13.79,3.47,5.17,6.83,15.53-1.84,37.12-4.84-8.09-13.86-17.08-23.1-29-7.63-9.83-16.23-18.39-28.97-21.32l-.05-3.32c9.34-31.75,22.9-63.82,62.63-56.79,10.16,4.87,17.74,10.22,22.93,14.38,7.31,5.88,23.72,19.07,20.5,27.73-.71,1.92-2.14,2.97-3.42,3.9-10.02,7.31-30.32.26-30.66-6.06-.23-4.42,4.72-9.4,17.16-12.29-10-2.57-19.15,1.95-21.5,8.64-1.77,5.02.45,10.82,3.31,14.37.91,1.13,3.63,4.19,8.16,5.59,9.02,2.8,18.48-3.71,28.22-5.58,12.63-2.41.25,14.85-3.79,17.92-22.79,17.37-50.97-9.68-63.83-27.64l3.63,14.42ZM290.13,1088.83c49.63-46.15,50.32-128.63,76.7-184.6,0,0,23.98-47.07,52.05-65.52.26-.17,14.07-9.24,14.07-9.24,0,0,3.12,7.18,7.94,17.3,4.81,10.12,11.34,23.19,18.14,35.01,5.26,9.14,13.52,22.43,25.45,37.76-5.81-2.41-12.12-5.59-18.57-9.8-22.56-14.72-34.95-34.32-41.31-46.85-31.48,30.98-51.5,65.97-41.6,86.05,6.03,12.22,29.26,31.36,42.18,41.99,2.46,2.03,4.53,3.68,5.92,4.77-9.89-2.27-21.57-4.92-33.58-10.51-10.72-4.99-21.12-10.82-31.72-15.6l-28.33,82.73c6.84-5.02,21.34-14.09,40.93-14.56,5.92-.14,11.2.53,15.67,1.49-12.41,4.6-24.72,14.16-35.52,22.19-12.6,9.37-41.13,30.67-47.66,43.81-3.4,6.84-4.61,15.42-7.87,22.61-9.07,19.94-17.65,43.85-33.04,59.48l20.15-98.51ZM282.26,1286.65c-3.97.47-9.68,1.14-16.63,1.97,26.94-32.09,60.01-55.78,95.77-77.33,1.63,2.13-18.91,43.76-22.09,48.67-11.41,17.63-24.22,28.25-27.6,31.18-13.54,11.73-31.56,45.97-50.43,146.62,1.09-79.5,7.83-110.72,14.1-124.15.83-1.77,13.08-27.69,13.08-27.69,0,0-2.23.27-6.2.73ZM191.49,1397.39c-2.82,22.62.91,39.75,2.28,56.67,4.38,54.06,16.66,107.3,28.27,160.06-1.8-4.01-4.36-9.78-7.31-16.77-4.09-9.73-22.29-53.52-32.97-96.43-14.84-59.6-22.85-91.73-9.95-127.57,5.1-14.2,19.55-45.82,63.29-72.78-16.21,19.74-38.1,52.73-43.61,96.82ZM228.69,1273.46c-5.85,14.05-11.04,36.56-23.47,38-1.16.14-2.13.07-2.76-.02,6.05-22.67,4.33-55.88,21.75-72.95,26.34-25.8,77.32-46.4,113.25-53.31-12.97,10.94-30.75,16.19-45.55,25.2-32,19.47-52.08,36.32-63.22,63.08ZM346.15,1852.6c-32.04-31.38-63.93-63.04-88.72-100.73-1.71-28.43-2.77-58.13-3-89.01-.35-48.87,1.45-94.98,4.67-137.99,1.2,13.91,3.16,35.03,6.11,60.67,10.86,94.39,16.31,141.58,35.55,186.15,10.91,25.26,31.29,62.57,71.54,101.54l-26.15-20.63ZM525.11,1757.12c-30.85,43.97-50.45,51.18-60.79,46.99-21-8.53-48.82-76.61-56.08-98.54-46.88-141.59-36.19-293.51-22.89-439.82-2.3,2.97-6,7.9-10.22,14.2-86.91,129.58-32.66,298.49-33.32,298.58-.68.09-83.15-184.53,18.06-315.43,36.62-47.37,83.75-70.19,111.33-80.85-8.49,7.08-19.96,18.05-30.4,33.65-17.25,25.8-22.65,50.77-25.51,66.77-39.02,218.13,10.88,409.34,10.88,409.34,13.9,53.28,27.71,87.73,46.05,88.73,15.57.85,28.8-22.67,35.91-36.23,63.06-120.22,85.91-298.33,89.86-298.12,3.94.21,19.55,179.01-72.88,310.73ZM575.38,1395.05l-2.73-7.35c-24.12,28.35-58.55,37.29-92.79,21.71,8.98,14.49,26.95,21.46,43.39,21.67-3.96,26.52-7.92,53.04-11.88,79.55,9.2-7.41,20.42-18.03,30.93-32.56,6.88-9.5,11.96-18.63,15.75-26.6-3.24,28.85-10.12,65.84-24.97,106.93-14.15,39.15-31.45,70.71-46.68,94.37.34-17.45.37-35.53,0-54.2-.35-17.36-1.01-34.19-1.92-50.48-7.14,22.79-14.28,45.59-21.42,68.39-10.32-50.39-17.97-106.94-20.08-168.81-.59-17.23-.72-34-.47-50.3l8.4,7.19c-4.12-16.7-6.82-29.12.05-45.77l14.42,28.89c-7.7-34.44,1.49-154.52,32.01-174.26,27.48-17.79,38.71,7.45,50.36,28.05,23.84,42.21,29.99,48.96,26.08,55.93-3.48,6.22-13,10.36-18.97,7.37-4.93-2.47-8.75-10.45-5.29-15.98,2.09-3.34,6.42-5.11,11.06-4.71-.8-1.58-1.61-3.17-2.41-4.76-1.77.09-7.32.58-11.06,4.82-5.5,6.23-3.7,16.78,1.6,22.42,6.25,6.67,18.29,7.47,27.49.39-10,9.8-17.45,11.11-22.32,10.58-16.58-1.78-21.2-26.76-52.9-52.94-4.27-3.52-7.95-6.18-10.34-7.84,4.28,6.01,8.56,12.02,12.84,18.02-5.17.16-10.34.33-15.51.5,3.96,1.21,10.42,3.59,17.26,8.22,21.26,14.39,18.91,32.07,34.01,38.74,17.4,7.7,44.14-5.27,46.52-17.83.49-2.57-.3-5.41-1.87-11.11-2.44-8.86-5.93-15.66-8.6-20.15-6.93-14.02-13.85-28.04-20.77-42.06,9.13-2.68,18.4-5.8,22.97-14.51,21.05,18.29,69.6,17.7,66.3-18.07-.8-8.7-5.99-10.65-7.32-18.05,1.33-3.71,3.17-9.37,4.64-16.45,3.1-14.92,1.44-20.96,5.4-23.42,5.84-3.62,11.98,7.37,24.95,6.19,14.56-1.33,23.4-16.22,23.93-17.05,12.79-20.51-6.4-33.19-5.76-36.91.82-4.67,45.51-40.09,49.24-40.09h42.18c-1.89,1.52-4.67,3.44-8.34,4.9-10.27,4.06-19.65,1.4-19.79,2.24-.12.76,7.09,4.48,16.68,4.32,15.84-.25,24.7-10.99,29.91-6.97,1.74,1.35,2.72,3.94,2.6,8.34-.84,28.52-51.37,37.57-69.24,18.49-2.7,3.29,8.92,17.39,14.22,17.2-3.54,15.57-22.77,24.34-38.34,21.38l14.66,11.14c-5.21,23.83-11.56,46.58-41.16,39.48,5.41,7.93,17.46,10.74,26.43,12.09-1.38,32.1-12.31,73.68,1.35,99.4-26.55,34.21-47.17,73.24-60.34,115.57-24.66,3.75-51.69.61-74.36-5.25ZM1000,1851.56c-189.55,0-343.21-153.66-343.21-343.21s153.66-343.21,343.21-343.21,343.21,153.66,343.21,343.21-153.66,343.21-343.21,343.21ZM1350.25,1400.3c-13.17-42.33-33.79-81.36-60.34-115.57,13.66-25.72,2.73-67.3,1.35-99.4,8.97-1.35,21.02-4.16,26.43-12.09-29.6,7.1-35.94-15.65-41.15-39.48l14.66-11.14c-15.58,2.96-34.81-5.81-38.35-21.38,5.3.19,16.93-13.91,14.23-17.2-17.88,19.08-68.41,10.03-69.25-18.49-.12-4.4.87-6.99,2.6-8.34,5.21-4.02,14.07,6.72,29.91,6.97,9.59.16,16.81-3.56,16.68-4.32-.14-.84-9.52,1.82-19.78-2.24-3.68-1.46-6.46-3.38-8.35-4.9h42.18c3.73,0,48.42,35.42,49.24,40.09.65,3.72-18.55,16.4-5.75,36.91.52.83,9.36,15.72,23.92,17.05,12.97,1.18,19.12-9.81,24.95-6.19,3.97,2.46,2.3,8.5,5.4,23.42,1.47,7.08,3.31,12.74,4.65,16.45-1.34,7.4-6.53,9.35-7.33,18.05-3.3,35.77,45.25,36.36,66.3,18.07,4.57,8.71,13.84,11.83,22.97,14.51-6.92,14.02-13.84,28.04-20.77,42.06-2.67,4.49-6.15,11.29-8.6,20.15-1.57,5.7-2.36,8.54-1.87,11.11,2.38,12.56,29.13,25.53,46.53,17.83,15.09-6.67,12.74-24.35,34-38.74,6.85-4.63,13.3-7.01,17.26-8.22-5.16-.17-10.34-.34-15.51-.5,4.28-6,8.56-12.01,12.84-18.02-2.39,1.66-6.06,4.32-10.34,7.84-31.7,26.18-36.32,51.16-52.9,52.94-4.87.52-12.32-.78-22.31-10.58,8.67,6.5,19.99,5.99,26.38-.21,5.75-5.58,8.06-16.31,2.7-22.6-3.63-4.27-9.28-4.74-11.06-4.82l-2.41,4.76c4.85-.02,9.14,2.64,10.86,6.65,2.38,5.57-.98,11.9-5.09,14.04-5.83,3.04-15.48-1.14-18.97-7.37-3.91-6.97,2.24-13.72,26.08-55.93,11.65-20.6,22.88-45.84,50.36-28.05,30.53,19.74,39.71,139.82,32.01,174.26l14.42-28.89c6.88,16.65,4.18,29.07.05,45.77l8.4-7.19c.25,16.3.13,33.07-.47,50.3-2.1,61.87-9.76,118.42-20.08,168.81-7.14-22.8-14.27-45.6-21.42-68.39-.91,16.29-1.57,33.12-1.92,50.48-.36,18.67-.34,36.75,0,54.2-15.22-23.66-32.53-55.22-46.68-94.37-14.85-41.09-21.72-78.08-24.97-106.93,3.79,7.97,8.87,17.1,15.75,26.6,10.51,14.53,21.73,25.15,30.93,32.56-3.95-26.51-7.92-53.03-11.87-79.55,16.43-.21,34.4-7.18,43.39-21.67-34.25,15.58-68.68,6.64-92.8-21.71l-2.73,7.35c-22.66,5.86-49.7,9-74.36,5.25ZM1591.75,1705.57c-7.26,21.93-35.08,90.01-56.07,98.54-10.35,4.19-29.95-3.02-60.79-46.99-92.44-131.72-76.82-310.52-72.89-310.73,3.95-.21,26.81,177.9,89.86,298.12,7.11,13.56,20.35,37.08,35.91,36.23,18.35-1,32.15-35.45,46.06-88.73,0,0,49.89-191.21,10.87-409.34-2.86-16-8.26-40.97-25.51-66.77-10.44-15.6-21.91-26.57-30.4-33.65,27.58,10.66,74.71,33.48,111.33,80.85,101.21,130.9,18.74,315.52,18.06,315.43-.66-.09,53.59-169-33.32-298.58-4.22-6.3-7.92-11.23-10.22-14.2,13.3,146.31,24,298.23-22.89,439.82ZM1745.56,1662.86c-.22,30.88-1.29,60.58-3,89.01-24.79,37.69-56.68,69.35-88.71,100.73l-26.16,20.63c40.25-38.97,60.63-76.28,71.55-101.54,19.23-44.57,24.68-91.76,35.54-186.15,2.96-25.64,4.91-46.76,6.11-60.67,3.22,43.01,5.02,89.12,4.67,137.99ZM1708.08,1210.38c-14.8-9.01-32.58-14.26-45.55-25.2,35.93,6.91,86.91,27.51,113.25,53.31,17.42,17.07,15.7,50.28,21.75,72.95-.63.09-1.6.16-2.76.02-12.43-1.44-17.62-23.95-23.47-38-11.14-26.76-31.22-43.61-63.22-63.08ZM1818.23,1500.92c-10.68,42.91-28.88,86.7-32.97,96.43-2.94,6.99-5.51,12.76-7.31,16.77,11.62-52.76,23.89-106,28.27-160.06,1.37-16.92,5.1-34.05,2.28-56.67-5.51-44.09-27.4-77.08-43.61-96.82,43.75,26.96,58.19,58.58,63.29,72.78,12.9,35.84,4.89,67.97-9.95,127.57Z"/>
</svg>