<?xml version="1.0" encoding="UTF-8"?>
<svg id="Layer_1" xmlns="http://www.w3.org/2000/svg" version="1.1" viewBox="0 0 2000 2000">
  <!-- Generator: Adobe Illustrator 29.5.1, SVG Export Plug-In . SVG Version: 2.1.0 Build 141)  -->
  <g>
    <path d="M409.31,1878.67c19.63,0,33.22-13.84,33.22-36.74v-103.69h46.06v103.69c0,46.31-30.7,76.01-79.53,76.01s-80.53-29.7-80.53-76.01v-103.69h46.06v103.69c0,22.65,14.85,36.74,34.73,36.74Z"/>
    <path d="M592.28,1772.47c-11.07,0-18.37,4.03-18.37,12.33,0,30.2,92.87,13.09,92.87,77.51,0,36.24-31.71,55.12-70.97,55.12-29.44,0-60.15-11.07-81.29-28.69l17.87-35.99c18.12,16.11,45.55,26.93,63.92,26.93,13.59,0,22.15-5.03,22.15-14.85,0-30.96-92.87-12.33-92.87-75.75,0-33.22,27.94-54.36,70.47-54.36,25.92,0,52.1,8.05,70.47,19.88l-17.36,36.74c-18.62-10.82-42.28-18.88-56.88-18.88Z"/>
    <path d="M833.64,1738.24v38h-52.85v138.42h-46.06v-138.42h-52.35v-38h151.25Z"/>
    <path d="M958.48,1883.45h-76.26l-12.33,31.21h-47.32l75.75-176.42h47.31l73.99,176.42h-49.08l-12.08-31.21ZM944.89,1848.22l-24.16-62.92-24.66,62.92h48.82Z"/>
    <path d="M1295.97,1826.32c0,52.6-38.51,88.34-95.63,88.34h-74.24v-176.42h76c55.87,0,93.87,35.74,93.87,88.09ZM1248.91,1826.83c0-30.45-19.88-51.09-47.82-51.09h-28.94v101.68h31.21c26.68,0,45.55-20.39,45.55-50.59Z"/>
    <path d="M1465.6,1738.24v36.74h-93.12v32.97h84.06v36.49l-84.06.25v33.22h95.64v36.74h-141.69v-176.42h139.17Z"/>
    <path d="M1535.82,1738.24l44.04,127.6,44.29-127.6h47.31l-68.96,176.42h-47.82l-68.45-176.42h49.58Z"/>
  </g>
  <g>
    <path d="M794.89,1545c.1.11.18.2.28.28,25.84,24.99,64.93,54.65,117.57,71.04,27.56,8.58,56.87,13.19,87.26,13.19,92.71,0,175.38-43.04,229.1-110.22.11-.14.23-.27.33-.41,20.81-25.4,37.03-54.57,47.77-86.22,3.5-9.23,6.57-18.91,9.11-29.06,31.75-126.65-39.41-240.8-94.21-282.85-3.68-2.83-32.27-22.41-33.05-21.35-.6.8,14.93,13.16,17.41,15.18,17.51,14.22,110.62,102.04,105.2,233.49-1.31,31.96-8.18,60.51-17.64,85.28-3.47,7.75-7.36,15.63-11.7,23.6-9.59,17.64-20.2,33.52-31.31,47.77-5-2.4-10.1-4.5-15.12-6.36-15.96-5.93-32.62-9.75-49.31-13.06l20.14-42.83c.09-.47-.03-.87-.24-1.29-1.36-2.74-12.97-6.18-15-9.26,39.87.16,70.99-29.09,83.9-65.08,22.26-62.16-4.41-122.89-17.22-146.76-62.86-117.15-220.29-154.49-297.74-128.18-22.33,7.59-44.84,20.33-44.84,20.33-38.72,21.89-64.33,48.72-79.25,66.95v-22.88l-31.03,58.82,61.54-30.51h-23.42c12.25-17.08,40.47-51.3,88.81-70.52,78.78-31.32,150.14,1.68,170.29,10.51,68.86,30.16,141.3,107.3,136.89,187.2-1.44,25.9-14.19,60.61-45.96,57.41-16.41-1.65-25.01-16.52-37.97-24.67-19.97-12.56-39.78-13.56-62.17-7.25-9.32,2.63-24.09,12.26-23.89-4.79.1-9.04,7.32-27.83,13.13-34.83,4.68-5.64,13.16-12.39,20.58-13.26,2.04,2.78,6.17,6.13,9.18,7.98,8.09,4.94,20.84,5.73,24.62,15.69,2.4,6.28.71,8.2-3.19,12.99l9.25,1.92-5.44,4.35c11.71,6.05,31.05,3.77,32.18-12.25.05-.89-.51-1.75-.49-2.3.04-1.94,4.82-.7,6.33-.31,5.9,1.52,10.31,7.32,16.45,2.61-5.93-.56-7.49-6.76-12.35-9.43-3.54-1.94-7.1-1.81-10.52-3.1-5.8-2.19-7.62-9.4-12-13.34,5.31.46,10.4,2.2,15.79,1.64l-2.17,6.53c2.57-1.6,5.47-4.27,8.71-3.54l-4.89,4.08c4.05.23,8.04-1.22,11.42-3.26l-1.08,5.44c3.1-.14,6.24-1.25,8.89-2.8.14-.08,1.31-.9,2.38-2.01,3.42-3.55,7.48-11.89,3.89-19.74-.29-.62-2.79-5.88-8.38-8.19-4.09-1.68-6.35-.36-11.69-1-3.27-.4-7.8-1.54-13.07-4.93,1.45-4.04,1.94-7.09-1.34-10.37-1.97-1.97-8.26-6.27-10.81-7.7-3.85-2.15-8.1-3.47-12.23-4.93-2.75-10.56-10.7-18.95-12.66-29.84-4.72,6.53-6.49,16.01-6.54,23.97-7.65-9.32-19.51-9.36-28.6-17.43-1.87-1.66-4.49-5.57-5.98-6.55-.61-.4-.37-.85-1.08.03-5.58,6.78-1.28,20.79,2.43,27.76-22.8,4.49-40.06,24.8-50.75,44.31-8.58,15.64-12.74,32.74-17.06,49.92l-1.91,4.1c-2.18-5.18-2.99-10.77-2.74-16.37,1.13-25.41,10.92-45.54,7.03-72.89-2.19-15.42-8.22-32.59-21.71-41.49l3.25-3.28c4.84-5.91,8.8-12.84,10.36-20.4-5.25,4.1-11.1,4.5-17.42,5.45l6.43-7.45c3.31-5.36,4.5-10.96,3.84-17.27-.26-2.53-1.23-6.83-3.2-8.51.5,4.44-.4,9.03-2.62,12.9-3.87,6.76-11.61,9.15-18.17,13.04,1.87-2.36,3.65-5.3,4.93-8.85,1.84-5.18,1.91-9.8,1.69-12.73-2,1.61-2.41,4.57-4.11,6.5-3.2,3.6-8.7,3.52-12.92,5.06-6.86,2.51-12.07,7.65-12.93,15.12-.96.13-.52-1.23-.54-1.89-.27-6.71,4.79-13.52,0-19.34-.97,7.02-9.35,8.11-12.21,13.67-1.91,3.72-1.52,7.38-1.15,11.38-2.26-2.31-4.42-6.36-4.42-9.62-.02-3.06,2.52-7.15,2.92-10.39.81-6.43-4.87-12.58-11.29-12.66.77,2.41,2.79,4.05,3.45,6.64,2.12,8.42-6.94,10.86-6.74,17.04.15,4.45,6.7,9.44,6.05,13.63-.2,1.34-4.59,3.29-5.97,4.41-2.09,1.7-3.43,3.34-4.04,5.25-.88,2.72-.25,5.22.18,6.41-4.18,2.61-8.07,3.93-11.48,4.57-3.85.72-5.01.18-8.06,1.24-1.66.57-7.24,2.5-9.69,7.91-3.06,6.76,1.24,13.61,1.61,14.19.68.98,1.51,2.03,2.53,3.07,3.07,3.1,6.43,4.69,8.73,5.53l-.27-5.98c1.92,2.8,5.16,6.14,8.44,6.27-1.58-1.79-2.23-4.5-2.17-6.81,2.8,2.46,5.79,4.55,9.25,5.98l-2.18-6.52h17.71c.11,0,.99.91.81,1.08-2.69.41-5.49,1.31-7.63,2.99-3.97,3.1-3.57,7.59-9.25,9.28-5.96,1.78-17.44,1.37-18.53,9.52,5.98-1.22,11.48-1.43,17.43,0-4.42,13.7,4.42,20.83,16.19,24.93,3.98,1.38,9.83,3.37,13.77,1.5-3.97-3.31-5.54-7.67-4.9-12.81l6.53,2.72c-.24-1.67-1.36-2.91-1.59-4.68-1.45-11.47,17.58-25.95,21.07-9.62,1.57,7.36-.81,17.78-3.13,24.93l-16.62,42.76c-11.76-28.75-34.86-53.19-66.72-57.74,2.49-8.15,2.29-17.01-.56-25.06-2.11,2.46-3.3,5.36-5.43,7.92-4.29,5.16-10.96,9.8-17.44,11.7.96-4.36,2.86-9.31.83-13.61-5.79,5.69-12.67,12.04-19.5,16.46-9.95,6.45-27.37,8.37-23.81,24.93-2.82,1.35-7.33,3.46-12.99,5.89-10.37,4.46-12.59,4.85-14.44,7.72-3.53,5.52-2.05,14.54,2.34,18.28,1.68,1.43,4.51,2.7,5.44,3.12,2.38,1.07,4.5,1.67,6.03,2.03-.63-1.03-.93-1.75-1.1-2.98-.09-.63-.48-2.79.82-2.46,2.39,3.03,5.2,4.36,9,4.89.21-.17-1.3-1.51-1.56-1.98-.28-.53-2.26-5.34-.35-4.55,1.12.48,7.31,6.38,8.45,5.45l-2.73-8.16,15.8-2.19c.31,1.26-.24.89-.69,1.25-4.96,3.83-5.69,7.2-9,10.2-2.79,2.54-8.51,2.76-12.13,4.59-5.22,2.65-8.24,9.13-15.22,6.29,1.39,3.91,6.24,5.36,10.02,4.85,4.86-.64,8.12-5.96,13.4-5.39-1.67,6.95,4.27,14.28,10.52,16.98,6.7,2.89,11.96,1.85,18.89,1l-4.28-4.71-.62-2.38h7.9c.19,0,3.33-.62,2.44-1.62-7-2.81-4.61-11.46-.77-16.31,5.91-7.44,17.79-8.72,23.67-16.68,10.08.93,20.47,6.76,26.95,14.44,6.3,7.47,8.09,19.88,11.15,29.16,4.64,14.08,10.33,27.83,20.62,38.79-1.88,11.63.56,22.87,8.76,31.47-4.12,4.63-7.69,9.7-11.66,14.45-4.79,5.7-27.59,31.83-33.36,32.56-1.64.21-5.09-.6-7.49-.42-2.49.18-6.67,1.74-8.7,1.6-1.71-.11-5.43-2.71-8.34-3.09-7.56-1.03-14.82.93-20.78,5.61-1.93,1.53-4.57,5.2-6.43,6.1-4.13,2.01-6.03,1.09-12.67,3.12-2.19.68-3.37,1.25-7.51,3.18-16.67,7.77-15.45,6.86-18.51,8.52-1.52.85-3.26,1.85-5.13,3.08-11.57-14.67-22.63-31.08-32.59-49.39-22.6-41.57-32.97-80.76-37.99-110.24-1.98,9.65-.73,22.07.54,31.79,8.52,64.99,38.85,123.52,84.82,166.49ZM1082.51,1508.73l-1.08-.28c1.55-8.36,6.3-15.57,14.34-18.88,3.61-1.49,9.65-2.83,12.9-.18-2.52,1.19-5.24,4.49-7.42,5.65-1.39.75-3.1.75-4.56,1.44-5.76,2.71-11.15,6.47-14.17,12.25ZM1163.13,1506c-1.75-1.59-3.28-2.58-5.46-3.53-2.16-.93-9-2.15-9.8-2.72-2.71-1.95,3.06-4.57,4.64-4.57,4.77.02,11.12,5.7,10.61,10.82ZM1209.33,1355.84c28.34-48.93,3.81-116.82-28.23-157.84-49.95-63.93-125.04-100.62-206.13-103.8-5.98-.25-12.01.26-18.01.02-.65-.03-2.02.41-1.89-.55,62.49-8.11,123.1,9.33,175.34,42.81,54.8,35.11,102.48,89.2,110.09,156.27-1.44-.02-2.81-2.89-4.35-2.18.56.55,1.08,1.14,1.36,1.9,1.04,2.98,4.08,12.91,4.08,15.54v11.71l-5.98-7.08c3.64,9.84,4.06,19.69,2.16,29.95l-5.43-7.08c1.6,9.37,1.69,18.27-1.93,27.21-.27.66-.57,2.19-1.34,2.2-.47-2.04-1.22-4.48-2.08-6.37-.46-1-1.33-2.86-2.27-3.43.78,6.72-.51,14.57-3.53,20.73-.4.78-5.65,9.53-6.83,8.14,0-2.81.28-6.87-2.18-8.71-.54,5.8-2.62,12.73-6.59,17.1-1.18,1.29-7.5,6.26-8.95,6.86-.73.31-.86,0-.72-.71.43-2.19.67-3.76.41-6.05-.06-.52-.24-2.04-1.04-1.95-2.41,8.48-11.26,13.56-19.61,14.7-.44-.41,4.64-9.9,1.1-11.43-1.82,6.74-8.66,10.54-15.27,11.44-.25-3.24.33-6.9,0-10.08-.51-4.83-3.23-9.74-4.35-14.44,22.05,4.47,41.2-5.93,52.17-24.88ZM1116.29,1378.22c9.77-1.03,18.59,11.18,19.83,12.89,1.57,2.18,4.43,6.26,5.44,12.3,1.29,7.68-.85,15.72-6.11,22.24,0,.71,5.79,4.86,6.81,5.62,4.89,3.65,13.75,8.33,17.62,12.33.77.79,2.04,2.46,1.9,3.6-.27,2-5.12,11.69-6.35,14.32-5.74,12.32-12.55,24.19-18.69,36.31-2.86,2.42-6.93,4.83-10.81,3.68-1.37-.41-2.16-2.8-3.95-3.15-5.96-1.15-13.76,5.01-17.42,9.25l-3.53,4.91c-.64-8.93,7.87-19.5,16.66-20.65,5.75-.76,9.72,2.86,14.37-2.5,3.83-4.42,15.01-30.28,17.17-36.77,2.08-6.27-.53-6.8-5.96-8.73-18.78-6.64-38.85-5.04-44.27-30.36-3.21-14.98,5.81-34.08,17.28-35.31ZM1086.97,1450.08c-2.85-3.31-7.49-11.34-6.63-15.71.4-2.06,6.16-3.83,7.91-5.1,10.24,18.77,30.1,22.71,49.83,24.44-2.26,9.63-7.49,18.26-12.35,26.72l-54.66-6.02,18.99-21.07c.18-1.09-2.29-2.31-3.1-3.25ZM1135.35,1306.64c1.1,1.44-5.11.86-6.29.04-2.34-1.64-5.54-11.48-8.95-13.66,7.62,1.42,7.6,12.1,15.24,13.62ZM1088.86,1239.26c1.75,3.38,2.57,6.73,2.93,9.64,2.61-1.37,2.29-4.68,3.01-7.09,10.33,2.93,19.97,2.91,29.49,8.63,2.43,1.46,8.51,5.47,7,8.79-2.71,5.94-10.3-2.27-13.69-3.73-4.79-2.08-14.06-1.33-17.65,2.65l9.27,2.18c-.22,13.75,14.56,12.22,23.13,6.61l15.54,3.75-7.08,4.35c5.86,1.01,10.15-3.57,15.94-2.58,9.42,1.59,11.75,14.01,3.94,18.73-2.52.03-3.52-3.54-3.9-3.64-1.49-.36-4.3.17-6.29-.12-2.55-.35-5.03-2.42-6.73-2.57-1.75-.16-3.35.78-5.81.41-3.54-.54-7.66-3.51-11.15-4.64-7.99-2.64-16.04-2.11-24.11-.13.41-1.04,1.06-1.98,1.88-2.75,1.07-.99,2.33-1.17,3.02-2.14-8.82-.42-13.46,6.06-4.86,11.66,4.78,3.11,9.55,4.64,13.58,9.29,3.99,4.61,6.06,13.62,11.43,15.8,1.74.71,4.1.91,5.93,1.41.5,2.79-.5,5.02-3.21,5.95l-1.64-3.27c.57,4.79-3.98,6.88-8.17,6.53,1.36-2.7.06-5.5-.55-8.16l-5.45,2.72c1.79-10.07-2.62-16.78-10.39-22.56-5.61-4.16-12.91-6.5-16.74-12.67-3.01-4.85-3.76-9.99-1.74-15.42-5.56,2.29-6.06,9-4.91,14.15l-3.35-6.16c-2.6-7.53-.71-13.18,4.99-18.33-2.37-.21-4.99-2.28-6.79-3.83-.55-.47-4.2-3.75-3.55-4.34l13.34,3.79c-.4-14.82-18.2-17.26-23.15-29.94,2.64.41,19.31,3.17,26.49,17.05ZM1123.37,1265.79c-.26.35-.66.8-1.26,1.16-1.77,1.06-4.5.84-6.22-.87-1.09-1.07-1.58-2.81-1.23-5.19,2.6,2.82,4.2,5.76,8.71,4.9ZM804.17,1334.69c.7-.78,6.41-10.23,7.62-8.98l-5.16,9.27c-1.42,1.67-2.94,2.45-5.19,2.16.63-1.09,1.82-1.45,2.72-2.45ZM851.3,1271.25c-3.96,4.54-10.64,7.21-12.14,13.46-.24.98-.71,2.91.69,2.88,4.04-.03,8.72-2.37,12.8-2.73-3.24,4.57-7.73,7.18-13.06,8.73,7.91,5.35,7.99,14.21,2.95,21.74-.63.93-2.28,3.17-3.5,3.3.7-3.14,2.39-5.76,1.15-9.05-.28-.74.19-.93-1.14-.75-5.09,14.01-22.96,20.19-20.18,37.58l-5.44-3.26c-.11,3.21-.31,5.98,1.64,8.7-3.86-.45-8.92-2.27-8.18-7.07-.74.04-1.31,2.18-1.42,2.71-.22,1.25.76,2.93-.48,2.73-.85-1-2.3-1.94-2.94-3.06-3.43-6.12,2.12-4.37,5.76-6.08,4.79-2.27,6.66-8.91,9.75-13.14,3.15-4.34,12.27-11.1,12.23-16.12-.05-4.81-7.01-7.02-10.92-5.7l4.64,2.71,1.36,2.18c-3.2-.85-6.22-1.31-9.56-1.11-7.78.47-12.69,5.76-20.21,6.35-1.3.11-2.52-.71-4.15-.23-.82.24-2.04,1.74-3.18,2.28-3.46,1.63-7,2.71-10.79,1.43l-1.14,3.8c-6.86-.04-8.09-12.24-3.46-15.18,6.39-4.04,13.71.3,20.36-.08l-7.63-3.53,14.1-4.92c9.84,5.39,18.61,3.94,20.75-8.17l8.19-1.9c-.26-.85-2.19-1.38-2.98-1.65-4.39-1.49-9.22-2.61-13.54-.42-3.47,1.76-7.73,8.39-11.56,3.7-.61-1.49,1.75-4.29,2.73-5.45,6.23-7.32,19.65-9.25,28.6-11.43-1.12,2.67-2.38,6.08-.26,8.71,2.09-3.5,4.05-6.98,7.38-9.48,3.43-2.57,7.69-3.55,11.43-5.46.88-.45,5.66-3.83,5.97-3.55-1.52,2.16-2.88,4.54-4.62,6.54ZM804.72,1298.46c3.08-1.81,6.17-3.62,9.25-5.43.27,6.09-4.25,7.46-9.25,5.43ZM935.46,1505.46c1.92-8.39,6.05-14.81,13.96-18.44,3.91-1.8,10.46-4.17,13.8-.63-3.67.78-6.66,5.21-9.29,6.78-2.54,1.5-6.27,2.03-9.18,3.89-3.41,2.18-6.06,5.98-9.29,8.41ZM1016.62,1497.55c-3.46-.95-6.64-.52-10.04-1.29-1.11-.78.32-3.21,1.04-3.88,5.23-4.98,16.4,2.09,16.61,8.72-2.74-.87-4.72-2.75-7.62-3.55ZM1040.98,1440.22c.25-1.11.15-2.27.15-3.39l3.9,7.25c3.83,4.4,8.54,8.71,14.08,10.73-3.09,6.72-9.33,11.74-15.1,16.23l-20.31-.99c-.46-.41,2.56-5.16,3.04-5.95,3.67-6.06,12.93-17.75,14.24-23.89ZM1050.51,1252.97c1.8-1.06,3.66-2.05,5.6-2.98-.15,1.3-.93,1.78-.72,3.39.25,1.93,1.8,2.56,2.09,4.24-6.92,5.51-14.22,12.31-21.22,20.7-25.36,30.32-32.51,63.91-34.84,82.81,1.91-30.27,10.08-85.13,49.1-108.16ZM983.67,1387.81c1.19-.68,4.14-1.78,10.07,1.08,4.95,1.88,11.23,3.79,15.98.6,6.21,5.36,11.6,12.51,10.7,21.2l-8.44-5.45c-.56.05-.27.85-.16,1.23,1.23,4.38,7.47,17.9,10.25,21.36,2.38,2.95,7.9,6.32,6.98,10.77-7.89,12.92-15.03,26.33-22.9,39.25-4.5,7.41-12.36,21.74-22.1,22.61-2.64.24-4.55-3.35-6.41-3.7-4.78-.93-12.08,3.68-15.77,6.54l-8.45,7.61c1.53-11.72,11.93-22.38,24.23-21.23,4.19.39,5.98,2.49,9.77-1.67,3.91-4.29,8.94-15.89,11.67-21.56,4.42-9.16,8.27-18.66,12.4-27.97l-.04-1.08c-.7-1.66-10.36-5.69-12.64-7-7.9-4.55-12.96-9.82-15.58-15.98-4.04-9.48-5.55-23.18.43-26.59ZM904.12,1253.26c2.96-2.21,4.1-6.35,7.62-8.18,2.47-1.29,5.19-1.23,7.92-1.61-1.73,1.97-4.73,3.31-6.56,5.14-4.62,4.66-4.72,9.03-13.6,7.38,1.13-1.47,3.06-1.54,4.63-2.72ZM942.54,1245.1c1.44-3.71,3.53-7.52,1.37-11.44-4.02,8.82-13.72,12.39-19.62,19.6-3.63,4.42-6.53,10.66-7.36,16.34l-3.53-2.71c-2.49,3.36-3.06,7.56-1.37,11.43-4.22-1.15-8.68-5.86-7.08-10.36l-2.45,3.26c-2.17-1.41-4.35-8.49-1.02-9.11.86-.17,2.81.59,4.71.28,5.92-.96,11.25-10.3,15.64-14.31,2.94-2.68,10.64-7.13,11.93-10.4,2.45-6.1-1.48-11.19-7.56-12.2,2.41,2.35,3.59,4.73,3.8,8.17-2.89-2.66-6-4.57-10.04-4.93-7.8-.71-15.28,3.92-23.95,3.24-1.12-.09-2.25-1-3.23-.92-1.52.17-4.54,2.34-7.16,2.6-2.49.23-3.75-.19-5.95-1.14l-2.78,3.35c-2.96,0-6.68-13.35,1.24-16.24,6.61-2.42,11.06,2.24,17.56,1.49l-5.99-3.81c3.78-.17,10.78-5.08,14.15-3.53,1.27.58,3.38,3.42,5.8,4.55,8.02,3.72,18.02,1.3,18.21-8.62,2.71-.33,6.31-1.09,8.14-3.29-5.98-1.95-12.3-3.4-18.33-.64-4.64,2.12-6.68,8.55-11.91.63l-1.88,1.09c-.56-8.98,15.08-13.18,22.03-13.63,3.46-.23,14.88.97,17.99,2.19.52.21,1.08.25,1.36.85-.84,2.73-3.05,5.39-1.9,8.41,4.57-4.38,8.9-9.84,14.99-12.24,6.02-2.37,11.7-.78,17.96-1.91-4.24,4.84-11.67,5.82-16.84,9.03-4.9,3.05-6.79,7.29-10.13,11.66l.55,1.08c4.35-.94,8.81-.98,12.54-3.79,1.23-.39-2.23,3.93-2.71,4.38-3.16,2.97-8.63,5.02-12.82,5.98,1.32,3.11,3.46,6.02,3.81,9.52.66,6.48-3.22,12.3-8.16,16.08ZM913.12,1216.22c2.72-2,5.45-3.99,8.18-5.99.6,2.11-.08,4.35-1.72,5.7-1.81,1.49-4.44,1.62-6.46.29ZM963.79,1288.42c-2.08,2.55-9.98,4.59-13.1,2.97,1.1-4.54,2.19-9.07,3.28-13.62,1.64.05,3.74-.04,6.14-.53,2.64-.55,4.8-1.42,6.37-2.19.47.51-1.82,12.28-2.7,13.36ZM958.05,1395.42c-3.47,2.7-12.34,5.98-15.93,2.59-.67-.63-3.28-6.02-3.87-7.29-1.01-2.19-1.64-4.58-2.8-6.72,6.1,2.14,12.03,1.32,17.59-1.75,1.43-.79,7.48-6.02,8.02-5.64,4.79,8.29,4.62,12.86-3.01,18.81ZM954.51,1272.33c.04-2.33.07-4.64.11-6.98,1.58-.88,3.55-2.19,5.54-4.07,2.61-2.49,4.24-5.05,5.24-6.93,3.73,10.47,1.22,18.13-10.89,17.98ZM944.27,1309.23c.07-.44,1-3.26,1.97-6.01.49-1.38,1.47-3.2,2.27-5.61,1.61.44,3.98.88,6.85.77,3.16-.13,5.68-.89,7.32-1.53-1,2.98-.99,6.83-2.01,9.7-1.63,4.59-11.63,7.82-15.83,4.87-.46-.64-.7-1.4-.57-2.19ZM941.45,1316.45c5.37,3.56,11.3,2.34,16.88,0-1.22,3.57-.94,8.13-1.75,11.59-.97,4.14-10.44,6.49-14.2,5.72-9.44-1.95-1.74-11.55-.93-17.31ZM936,1337.69c6.45,4.15,13.28,1.98,19.61-1.08v11.7c0,5.45-12.12,7.98-16.49,7.23-1.21-.2-5.21-1.78-5.33-2.84-.56-4.45,1.3-10.64,2.21-15.01ZM949.37,1361.14c1.33-.42,6.82-3.78,7.32-3.31l2.09,12.69c-3,5.41-20.56,11.83-24.13,5.82-1.68-2.85-1.08-12.67-1.91-16.32,5.75,2.27,10.59,3.06,16.63,1.12ZM900.6,1319.18c-9.99-12.36-21.16-20.4-29.93-25.57,3.71-1.41-.24-5.98-2.21-7.66,4.28,1,11.66,3.16,19.36,8.14,35.01,22.7,36.7,77.91,35.69,78.15-.71.18-1.84-27-22.9-53.07ZM962.11,1442.78l-2.14-7.59c.34-.38,7.57,3.62,8.72,4.08,9.44,3.8,19.83,4.94,29.94,4.64-2.74,8.91-5.98,18.13-10.69,26.05-23.44-.07-46.71,2.58-69.91,5.53,13.53-12.23,28.79-22.73,44.09-32.72ZM871.64,1487.01c.59,8.92-5.44,6.28-10.96,7.14-6.63,1.02-14.08,7.46-18.91,11.85,2.22-13.36,16.73-23.45,29.88-18.99ZM848.3,1484.22c.24.32-4.35,3.47-4.93,4.05-.83.84-2.42,3.69-2.85,3.97-1.55.96-6.47,1.28-8.2,3.51l-7.99,7.53c1.4-10.67,12.58-22.11,23.97-19.06Z"/>
    <path d="M936.19,824.04c.8-9.8,4.88-20.73,5.69-30.77.18-2.25,1.61-10.51-1.87-10.51-.7,14.78-10.94,27.11-12.96,41.75-2.81,20.39,3.41,40.64,16.76,56.12-5.73-19.21-9.29-36.21-7.63-56.59Z"/>
    <path d="M834.42,634.97c-5.22,5.57-10.98,12.47-16.62,20.83-5.66,8.39-9.92,16.35-13.13,23.3-1.04-5.49-2.1-13.76-1.23-23.64,2.32-26.7,16.63-41.93,29.44-65.22,7.22-13.13,16.01-32.54,21.72-58.92,7.45,24.29.11,50.04-8.62,72.95,7.26-7.72,12.08-17.89,15.07-28.73,3.77-13.68,4.52-25.28,4.11-32.67,1.57,6.8,2.79,14.49,3.21,22.96,1.44,28.93-7.13,52.28-13.89,66.36,7.05-7.17,16.54-18.66,23.33-34.92,3.35-7.99,5.33-15.43,6.53-21.77-.9,32-4.5,55.81-7.77,71.98-1.69,8.42-4.87,22.51-4.14,41.62.48,12.85,2.55,23.35,4.27,30.32,1.32-4.98,2.87-10.12,4.72-15.41,6.95-19.97,16.07-36.55,25.02-49.83-2.22,6.26-4.63,16.11-2.96,27.76.46,3.19,1.16,6.11,1.97,8.69,1.9-9.37,8.59-35.86,32.44-53.14,12.1-8.78,23.52-11.93,32.37-13.54,9.8-1.78,19.83-2.85,29.76-3.06,9.92.21,19.95,1.28,29.76,3.06,8.84,1.61,20.26,4.76,32.36,13.54,23.84,17.28,30.53,43.77,32.44,53.14.81-2.58,1.51-5.5,1.97-8.69,1.67-11.64-.74-21.5-2.96-27.76,8.96,13.28,18.08,29.86,25.03,49.83,1.83,5.29,3.38,10.43,4.71,15.41,1.72-6.97,3.78-17.47,4.27-30.32.72-19.11-2.44-33.2-4.14-41.62-3.26-16.17-6.87-39.98-7.77-71.98,1.2,6.34,3.18,13.78,6.53,21.77,6.8,16.26,16.28,27.76,23.34,34.92-6.77-14.08-15.33-37.43-13.9-66.36.42-8.47,1.64-16.16,3.21-22.96-.41,7.39.33,18.99,4.11,32.67,3,10.84,7.81,21.01,15.07,28.73-8.73-22.92-16.07-48.66-8.62-72.95,5.71,26.38,14.5,45.79,21.72,58.92,12.81,23.3,27.12,38.53,29.45,65.22.85,9.88-.2,18.15-1.24,23.64-3.21-6.95-7.47-14.9-13.13-23.3-5.64-8.36-11.41-15.26-16.62-20.83,15.87,37.55,4.01,77.03,15.37,115.15,34.37-36.9,71.62-83.49,67.12-137.19-5.02-59.83-86.79-170.6-126.69-216.87-8.68-10.07-38.24-44.2-49.32-46.69-19.29-4.32-54.77,29.76-72.05,32.26-17.28-2.5-52.76-36.58-72.05-32.26-11.09,2.49-40.64,36.61-49.32,46.69-39.9,46.26-121.67,157.04-126.69,216.87-4.5,53.7,32.75,100.29,67.13,137.19,11.35-38.11-.51-77.6,15.36-115.15ZM983.29,600.38c.18-2.05.55-3.65.84-4.73.32-1.12.69-2.15.3-2.44-.35-.27-1.17.25-1.44.41-1.84,1.17-11.02,6.73-23.81,14.47l2.89-9.58c-15.54,11.24-27.43,24.73-38.4,40.29,1.9-12.63,4.02-17.98,5.76-20.36.26-.35,1.31-1.73.99-2.12-.57-.69-4.96,1.91-5.61,2.52-9.66,9.34-19.24,23.2-25.15,35.31.67-10.9.27-13.55-.28-13.63-2.12-.31-13.56,35.37-16.42,40.1-.85,1.4-1.77,2.73-1.77,2.73-.97,1.4-1.87,2.56-2.59,3.44,1.56-23.47,5.09-48.71,15.27-70.12,11.42-23.98,47.68-60.83,76.93-51.86,8.9,2.73,16.88,22.03,28.65,25.05-5.39,3.52-10.77,7.02-16.16,10.52ZM1121.4,686.78c-.71-.87-1.61-2.04-2.59-3.44,0,0-.93-1.33-1.77-2.73-2.86-4.73-14.3-40.41-16.42-40.1-.56.08-.95,2.72-.28,13.63-5.91-12.11-15.49-25.97-25.15-35.31-.63-.61-5.03-3.21-5.61-2.52-.33.4.72,1.77.99,2.12,1.75,2.38,3.85,7.73,5.76,20.36-10.98-15.56-22.87-29.05-38.41-40.29l2.89,9.58c-12.79-7.74-21.96-13.3-23.81-14.47-.26-.16-1.08-.68-1.44-.41-.38.29-.02,1.32.3,2.44.29,1.08.66,2.68.84,4.73-5.38-3.51-10.78-7.01-16.16-10.52,11.78-3.02,19.75-22.32,28.65-25.05,29.24-8.97,65.51,27.88,76.93,51.86,10.18,21.4,13.71,46.64,15.27,70.12ZM1092.59,442.08c-12.29,13.35-28.46,21.01-46.02,12.45,11.81-13.03,29.56-26.56,46.02-12.45ZM1018.34,438.81c14.79-8.47,38.2-14.31,53.93-22.43l3.08,5.52c-16.74,5.47-34.86,30.88-54.27,26.48-6.93-1.56-10.14-5.32-2.74-9.56ZM927.72,416.38c15.74,8.13,39.14,13.96,53.93,22.43,7.39,4.24,4.19,8-2.74,9.56-19.41,4.41-37.52-21-54.27-26.48l3.08-5.52ZM953.43,454.54c-17.56,8.56-33.74.9-46.03-12.45,16.46-14.1,34.21-.57,46.03,12.45ZM874.77,492.95c7.34-12.79,14.69-25.57,22.03-38.36,9.8,11.03,24.07,19.26,39.34,17.25-1.45,1.77-2.99,3.09-4.43,4.1-12.27,8.43-29.44.93-32.01-.25,15.48,16.1,39.84,7.28,56.62-1.9-3.53,6.38-7.03,12.75-10.56,19.14l21.78-13.12,16.58,18.9c2.36-10.38-11.11-19.86-6.7-28.78,4.63-9.36,10.44-.17,14.37,3.83l-3.68-15.2c4.04-2.09,8.04-4.07,11.89-5.2,3.84,1.13,7.84,3.11,11.88,5.2l-3.68,15.2c3.93-3.99,9.74-13.19,14.37-3.83,4.42,8.92-9.06,18.39-6.7,28.78l16.58-18.9,21.78,13.12c-3.53-6.38-7.03-12.75-10.56-19.14,16.78,9.18,41.15,18,56.63,1.9-2.58,1.17-19.75,8.67-32.01.25-1.45-1-2.98-2.33-4.44-4.1,15.27,2.01,29.54-6.22,39.34-17.25,7.34,12.79,14.69,25.57,22.03,38.36,5.47,12.42,5.42,14.39-4.81,22.97-15.79,13.26-20.03,9.74-37.37,2,10.73,19.42,7.99,42.17,11.5,63.3-4.11.89-4.35-2.1-6.08-4.46-8.12-11.1-44.52-65.16-54.48-66.61-9.56-1.4-18.22,12.18-16.18,21.17,5.67-3.8,6.05-15.12,15.21-13.33,1.46,5.73,5.59,12.45,5.76,18.36.32,11.67-10.87,10.94-17.25,16.95-7.48,7.04-8.44,19.52-21.51,21.81-13.08-2.29-14.04-14.77-21.52-21.81-6.38-6.01-17.57-5.28-17.25-16.95.17-5.91,4.29-12.63,5.76-18.36,9.17-1.79,9.55,9.53,15.21,13.33,2.04-8.99-6.61-22.57-16.18-21.17-9.96,1.45-46.35,55.51-54.48,66.61-1.72,2.36-1.97,5.35-6.08,4.46,3.52-21.13.78-43.89,11.51-63.3-17.35,7.74-21.59,11.26-37.38-2-10.22-8.58-10.29-10.55-4.81-22.97Z"/>
    <path d="M1059.99,782.76c-3.48,0-2.05,8.26-1.87,10.51.81,10.04,4.89,20.97,5.69,30.77,1.66,20.37-1.89,37.38-7.63,56.59,13.34-15.48,19.57-35.73,16.76-56.12-2.02-14.64-12.26-26.97-12.96-41.75Z"/>
    <path d="M1048.16,674.65c-8.03-11.62-18.07-16.75-16.61-20.1,1.79-4.09,18.3.35,18.57-.84.34-1.41-22.03-11.95-50.11-13.07-28.09,1.11-50.45,11.65-50.11,13.07.27,1.19,16.78-3.25,18.57.84,1.46,3.34-8.58,8.48-16.61,20.1-6.29,9.11-8.8,18.52-9.91,25.56,1.97-5.26,6.49-15.13,16.37-23.76,6.73-5.87,13.5-9.05,18.15-10.77-3.79,5.71-10.25,17.44-9.09,32.17.23,2.95.75,5.67,1.41,8.12-.17-12.5,17.3-41.49,31.24-46.93,13.94,5.44,31.4,34.43,31.24,46.93.66-2.45,1.17-5.17,1.41-8.12,1.16-14.74-5.3-26.47-9.09-32.17,4.65,1.72,11.42,4.9,18.15,10.77,9.87,8.63,14.4,18.5,16.37,23.76-1.11-7.04-3.63-16.45-9.91-25.56Z"/>
    <path d="M1748.54,1212.16c-2.71-10.75-21.22-26.32-25.82-37.51l-16.37-81.52c-9.27-12.47-33.11-20.79-40.27-34.58-14.1-27.14-13.46-73.46-23.08-101.66-1.49-4.34-12.68-12.79-16.49-18.05-25.67-35.49-36.57-104.35-51.74-145.95l-59.59-72.97c-1.58-11.54,9.74-36.99,4.46-46.56-1-1.8-27.91-21.1-32.56-25.01-12.13-10.17-24.21-20.6-35.6-31.62-6.5-2.99-18.46,2.87-25.86,2.86-15.07-.04-28.5-10.74-39.38-20.1-7.1-6.12-29.51-32.4-34.55-34.53-10.78-4.59-23.41,4.9-33.66-.89-5.54-39.02-30.06-71.98-46.69-106.86-19.96-41.89-37.8-85.75-52.55-129.77-9.25-27.61-17.99-75.44-29.81-98.78-4.83-9.52-27.45-33.65-35.86-42.82-38.13-41.49-67.64-65.99-119.3-89.91-10.94-5.06-22.42-9.72-33.82-13.86-11.41,4.14-22.89,8.8-33.83,13.86-51.66,23.92-81.17,48.42-119.29,89.91-8.43,9.17-31.04,33.3-35.86,42.82-11.83,23.34-20.57,71.16-29.82,98.78-14.75,44.02-32.59,87.88-52.55,129.77-16.63,34.88-41.13,67.84-46.69,106.86-10.25,5.79-22.87-3.7-33.66.89-5.04,2.13-27.45,28.42-34.55,34.53-10.88,9.36-24.3,20.06-39.38,20.1-7.4.02-19.36-5.84-25.86-2.86-11.39,11.02-23.46,21.44-35.6,31.62-4.64,3.91-31.56,23.22-32.56,25.01-5.28,9.56,6.04,35.02,4.46,46.56l-59.59,72.97c-15.17,41.6-26.06,110.46-51.74,145.95-3.8,5.26-15,13.71-16.49,18.05-9.62,28.2-8.98,74.52-23.08,101.66-7.17,13.78-31,22.11-40.26,34.58l-16.37,81.52c-4.59,11.19-23.11,26.76-25.83,37.51-1.98,7.88-.87,30.5-.45,39.82,3.41,75.41,25.78,144.89,55.31,213.4,3.98,9.25,15.5,26.48,17.17,34.64,2.87,14.04.5,36.21,2.53,51.21,2.73,20.32,69.29,87.88,87.1,104.82,5.22,4.97,15.96,15.62,25.19,23.96h-112.38v19.11h1348.16v-19.11h-112.38c9.22-8.34,19.97-18.99,25.19-23.96,17.82-16.95,84.37-84.51,87.1-104.82,2.03-15-.34-37.17,2.53-51.21,1.67-8.16,13.19-25.38,17.18-34.64,29.52-68.5,51.89-137.98,55.3-213.4.42-9.33,1.54-31.94-.45-39.82ZM1512.19,746.08c24.74,16.26,45.88,57.75,45.88,57.75,23.25,49.33,23.86,122.03,67.6,162.71l17.76,86.83c-13.56-13.78-21.13-34.85-29.12-52.43-2.87-6.34-3.93-13.9-6.93-19.93-5.76-11.58-30.91-30.36-42.02-38.61-9.52-7.08-20.37-15.5-31.31-19.56,3.94-.85,8.6-1.44,13.82-1.31,17.27.41,30.05,8.41,36.07,12.83l-24.97-72.92c-9.34,4.21-18.51,9.35-27.96,13.75-10.59,4.93-20.88,7.26-29.6,9.26,1.23-.96,3.05-2.41,5.23-4.2,11.38-9.37,31.86-26.24,37.17-37.01,8.73-17.7-8.92-48.54-36.67-75.84-5.61,11.04-16.53,28.32-36.41,41.29-5.69,3.71-11.24,6.51-16.37,8.64,10.51-13.51,17.8-25.23,22.43-33.28,5.99-10.42,11.75-21.94,15.99-30.86,4.25-8.92,7-15.25,7-15.25,0,0,12.17,7.99,12.4,8.14ZM1638.67,1164.65c5.53,11.84,11.47,39.35,12.43,109.43-16.62-88.71-32.51-118.89-44.44-129.23-2.98-2.58-14.28-11.94-24.34-27.48-2.8-4.33-20.9-41.02-19.47-42.9,31.52,18.99,60.67,39.87,84.42,68.16-6.13-.73-11.16-1.32-14.67-1.74-3.49-.41-5.46-.64-5.46-.64,0,0,10.8,22.85,11.53,24.41ZM1550.75,1134.98c-3.72-5.55-6.98-9.9-9.01-12.52,11.72,128.96,21.15,262.86-20.18,387.66-6.4,19.33-30.92,79.33-49.42,86.85-9.12,3.69-26.4-2.66-53.58-41.42-81.48-116.1-67.71-273.69-64.24-273.88,3.48-.18,23.63,156.8,79.2,262.76,6.27,11.95,17.94,32.68,31.65,31.93,16.17-.88,28.34-31.25,40.6-78.21,0,0,43.97-168.53,9.58-360.79-2.52-14.1-7.28-36.11-22.48-58.85-9.2-13.75-19.31-23.42-26.79-29.66,24.31,9.4,65.85,29.51,98.13,71.26,89.21,115.37,16.52,278.1,15.92,278.02-.58-.08,47.23-148.96-29.37-263.17ZM449.24,1134.98c-76.6,114.21-28.79,263.09-29.37,263.17-.6.08-73.29-162.64,15.92-278.02,32.28-41.75,73.82-61.87,98.13-71.26-7.48,6.24-17.59,15.91-26.79,29.66-15.2,22.74-19.96,44.75-22.48,58.85-34.39,192.26,9.59,360.79,9.59,360.79,12.25,46.96,24.42,77.33,40.59,78.21,13.72.75,25.38-19.98,31.65-31.93,55.58-105.96,75.72-262.95,79.2-262.76,3.47.19,17.23,157.78-64.24,273.88-27.19,38.76-44.47,45.11-53.58,41.42-18.51-7.52-43.03-67.52-49.43-86.85-41.32-124.8-31.9-258.7-20.18-387.66-2.03,2.62-5.29,6.96-9.01,12.52ZM367.39,1140.89c-3.5.41-8.53,1-14.66,1.74,23.74-28.28,52.89-49.16,84.41-68.16,1.44,1.88-16.67,38.57-19.47,42.9-10.06,15.54-21.35,24.9-24.33,27.48-11.93,10.34-27.82,40.52-44.45,129.23.96-70.07,6.9-97.59,12.43-109.43.73-1.56,11.53-24.41,11.53-24.41,0,0-1.97.24-5.46.64ZM625.74,1236.43l-2.41-6.48c-21.26,24.99-51.61,32.87-81.78,19.14,7.92,12.77,23.75,18.91,38.24,19.1-3.49,23.37-6.98,46.75-10.47,70.12,8.11-6.53,18-15.89,27.26-28.7,6.06-8.37,10.54-16.42,13.88-23.45-2.86,25.43-8.92,58.03-22.01,94.25-12.47,34.51-27.72,62.32-41.14,83.18.3-15.38.33-31.32,0-47.77-.31-15.3-.89-30.14-1.69-44.49-6.29,20.09-12.59,40.18-18.88,60.28-9.1-44.41-15.84-94.26-17.7-148.79-.52-15.19-.63-29.97-.41-44.33l7.4,6.34c-3.63-14.72-6.01-25.67.04-40.34l12.71,25.46c-6.79-30.36,1.31-136.19,28.21-153.59,24.22-15.68,34.12,6.57,44.39,24.72,21.01,37.2,26.43,43.15,22.99,49.3-3.07,5.48-11.46,9.13-16.72,6.5-4.35-2.18-7.71-9.21-4.66-14.08,1.84-2.94,5.66-4.5,9.75-4.15-.71-1.39-1.42-2.79-2.12-4.2-1.56.08-6.45.51-9.75,4.25-4.85,5.49-3.26,14.79,1.41,19.76,5.51,5.88,16.12,6.58,24.23.34-8.81,8.64-15.38,9.79-19.67,9.33-14.61-1.57-18.69-23.59-46.63-46.66-3.76-3.1-7.01-5.45-9.11-6.91,3.77,5.3,7.54,10.59,11.32,15.88-4.56.14-9.11.29-13.67.44,3.49,1.07,9.18,3.16,15.21,7.25,18.74,12.68,16.67,28.27,29.98,34.15,15.34,6.79,38.9-4.64,41-15.72.43-2.27-.26-4.77-1.65-9.79-2.15-7.81-5.23-13.8-7.58-17.76-6.11-12.36-12.21-24.71-18.31-37.07,8.05-2.36,16.22-5.11,20.25-12.79,18.55,16.12,61.35,15.6,58.44-15.93-.71-7.67-5.28-9.39-6.45-15.91,1.17-3.27,2.79-8.26,4.09-14.5,2.73-13.15,1.27-18.47,4.76-20.64,5.15-3.19,10.56,6.5,21.99,5.46,12.83-1.17,20.62-14.3,21.09-15.03,11.27-18.08-5.64-29.25-5.08-32.53.72-4.12,40.11-35.34,43.4-35.34h37.18c-1.67,1.34-4.12,3.03-7.35,4.32-9.05,3.58-17.32,1.23-17.44,1.97-.11.67,6.25,3.95,14.7,3.81,13.96-.22,21.77-9.69,26.36-6.14,1.53,1.19,2.4,3.47,2.29,7.35-.74,25.14-45.28,33.11-61.03,16.3-2.38,2.9,7.86,15.33,12.53,15.16-3.12,13.72-20.07,21.45-33.79,18.84l12.92,9.82c-4.59,21-10.19,41.06-36.28,34.8,4.77,6.99,15.39,9.47,23.3,10.66-1.22,28.29-10.85,64.94,1.19,87.61-23.4,30.15-41.58,64.55-53.18,101.86-21.74,3.31-45.56.54-65.54-4.63ZM688.29,975.21c-1.56,4.42.4,9.54,2.92,12.67.8,1,3.2,3.69,7.19,4.93,7.95,2.47,16.29-3.27,24.87-4.92,11.13-2.12.22,13.09-3.34,15.79-20.09,15.31-44.92-8.53-56.26-24.36l3.2,12.71-16.98-8.46c3.01,2.79,7.62,7.01,13.3,12.11,9.57,8.59,11.33,9.62,13.04,12.15,3.06,4.56,6.02,13.69-1.62,32.72-4.27-7.13-12.22-15.05-20.36-25.56-6.72-8.66-14.31-16.21-25.53-18.79l-.04-2.93c8.23-27.98,20.18-56.25,55.2-50.05,8.95,4.29,15.64,9.01,20.21,12.67,6.44,5.18,20.91,16.81,18.07,24.44-.63,1.69-1.89,2.62-3.01,3.44-8.83,6.44-26.72.23-27.02-5.34-.2-3.9,4.16-8.29,15.13-10.83-8.81-2.27-16.88,1.72-18.95,7.62ZM636.06,1009.05c5.29,3.89,38.52,44.3,39.09,48.12.63,4.2-16.28,14.03-22.53,8.58-11.19-9.77-6.67-19.6,7.88-20.63-.72-.31-6.5-2.65-12.21.52-.49.28-5.01,2.87-6.4,8.09-1.84,6.93,2.97,14.08,7.61,17.19,7.69,5.17,20.44,2.96,30.09-6.66.02,3.62-.86,6.58-2.38,8.95-6.61,10.32-25.28,7.46-27.47,7.11-17.15-2.57-28.49-15.12-35.86-23.29-5.67-6.28-9.47-12.16-11.78-16.13-.13,1.67-.18,4.09.31,6.92,2.58,15.12,16.54,20.53,15.33,27.54-.5,2.9-3.64,6.35-14.66,9.2-6.65-8.43-12.54-18.36-23.43-21.5,1.17-28.66,19.72-80.97,56.4-54.03ZM869.92,387.36c8.28-9.83,43.95-51.98,52.73-54.82,6.95-2.25,14.61,1.52,20.99,4.2,8.75,3.69,46.5,28.28,56.37,32.41,9.86-4.13,47.62-28.72,56.37-32.41,6.37-2.69,14.04-6.45,20.99-4.2,8.78,2.85,44.44,45,52.73,54.82,90.13,106.82,144.54,146.07,135.37,233.11,0,0-4.16,39.5-49.2,107.37-13.88,20.91-27.65,27.81-32.44,29.97-2.04.91-3.74,1.54-4.79,1.91-4.26-7.74-8.65-16.95-12.53-27.59-2.9-7.97-5.06-15.48-6.65-22.31-1.35,7.49-2.46,18.35-1.02,31.27.5,4.57,1.36,9.24,2.62,14.11,5.72,22.1,24.37,44.91,26.96,67.08,1.88,16.07-.29,33.11-3.65,48.74-.5-4.6-1.18-9.31-2.04-14.09-7.3-40.64-25.63-73.15-43.98-97.21-5.26,35.93,24.82,59.79,25.09,95,.13,16-5.25,42.34-15.49,54.69,3.68-19.31,5.8-36.3.95-55.67-6.33-25.29-28.35-45.63-29.77-72.92-5.64,2.34-4.2,12.68-3.79,18.21,1.56,21.29,16.97,39.72,19.17,59.5,3.28,29.47-12.08,50.06-13.41,76.81-.58,11.76,2.85,22.11,3.78,33.55-38.52-31.34-4.2-72.31-10.52-111.3l-32.66,57.56c-4.37-9.62-3.56-20.69-.96-30.7-14.05,14.68-7.54,37.79-13.32,56.72-5.42,17.8-26.51,25.46-28.43,46.41-.59,6.38.09,14.31-1.74,14.67-2.08.39-6.18-9.31-7.75-15.7-7.19-29.39,7.43-65.95,9.12-97.21.14-2.57,1.38-12-2-12.55l-9.07,47.54-27.91,80.19-27.92-80.19-9.07-47.54c-3.38.56-2.13,9.98-1.99,12.55,1.68,31.26,16.31,67.81,9.11,97.21-1.57,6.39-5.67,16.09-7.75,15.7-1.82-.35-1.15-8.28-1.74-14.67-1.92-20.95-23-28.62-28.43-46.41-5.77-18.93.73-42.03-13.31-56.72,2.59,10.01,3.4,21.07-.97,30.7l-32.65-57.56c-6.33,38.99,27.99,79.96-10.52,111.3.93-11.45,4.36-21.8,3.78-33.55-1.33-26.75-16.69-47.35-13.42-76.81,2.2-19.79,17.62-38.22,19.17-59.5.41-5.53,1.86-15.87-3.78-18.21-1.43,27.29-23.45,47.63-29.77,72.92-4.86,19.36-2.74,36.36.94,55.67-10.24-12.35-15.63-38.69-15.5-54.69.28-35.2,30.36-59.06,25.09-95-18.35,24.06-36.68,56.57-43.98,97.21-.86,4.79-1.54,9.49-2.04,14.09-3.35-15.64-5.53-32.67-3.64-48.74,2.58-22.18,21.23-44.99,26.95-67.08,1.26-4.87,2.12-9.55,2.62-14.11,1.44-12.92.33-23.78-1.02-31.27-1.6,6.83-3.75,14.34-6.65,22.31-3.88,10.64-8.28,19.85-12.52,27.59-1.06-.37-2.76-1-4.79-1.91-4.79-2.16-18.55-9.06-32.44-29.97-45.03-67.87-49.19-107.37-49.19-107.37-9.18-87.04,45.23-126.3,135.36-233.11ZM838.29,366.27l76.73-111.31c-10.05,44.91-40.67,84.24-76.73,111.31ZM1084.98,254.96l76.73,111.31c-36.07-27.07-66.69-66.4-76.73-111.31ZM1000,1033.79c167.07,0,302.5,135.44,302.5,302.5s-135.44,302.5-302.5,302.5-302.5-135.44-302.5-302.5,135.44-302.5,302.5-302.5ZM1255.53,1139.2c12.04-22.67,2.41-59.32,1.19-87.61,7.91-1.19,18.53-3.67,23.3-10.66-26.09,6.26-31.68-13.79-36.27-34.8l12.92-9.82c-13.73,2.61-30.68-5.12-33.8-18.84,4.67.17,14.92-12.26,12.54-15.16-15.76,16.82-60.3,8.84-61.04-16.3-.11-3.88.77-6.16,2.29-7.35,4.59-3.54,12.4,5.92,26.36,6.14,8.45.14,14.82-3.14,14.7-3.81-.12-.74-8.39,1.6-17.43-1.97-3.24-1.29-5.69-2.98-7.36-4.32h37.18c3.29,0,42.68,31.22,43.4,35.34.57,3.28-16.35,14.45-5.07,32.53.46.73,8.25,13.86,21.08,15.03,11.43,1.04,16.85-8.65,21.99-5.46,3.5,2.17,2.03,7.49,4.76,20.64,1.3,6.24,2.92,11.23,4.1,14.5-1.18,6.52-5.76,8.24-6.46,15.91-2.91,31.53,39.88,32.05,58.44,15.93,4.03,7.68,12.2,10.43,20.25,12.79-6.1,12.36-12.2,24.71-18.31,37.07-2.35,3.96-5.42,9.95-7.58,17.76-1.38,5.02-2.08,7.53-1.65,9.79,2.1,11.07,25.67,22.5,41.01,15.72,13.3-5.88,11.23-21.46,29.97-34.15,6.04-4.08,11.72-6.18,15.21-7.25-4.55-.15-9.11-.3-13.67-.44,3.77-5.29,7.54-10.59,11.32-15.88-2.11,1.46-5.34,3.81-9.11,6.91-27.94,23.08-32.01,45.09-46.63,46.66-4.29.46-10.86-.69-19.66-9.33,7.64,5.73,17.62,5.28,23.25-.19,5.07-4.92,7.1-14.38,2.38-19.92-3.2-3.76-8.18-4.18-9.75-4.25l-2.12,4.2c4.28-.02,8.06,2.33,9.57,5.86,2.1,4.91-.86,10.49-4.49,12.37-5.14,2.68-13.64-1-16.72-6.5-3.45-6.14,1.97-12.09,22.99-49.3,10.27-18.16,20.17-40.4,44.39-24.72,26.91,17.4,35,123.24,28.21,153.59l12.71-25.46c6.06,14.68,3.68,25.62.04,40.34l7.4-6.34c.22,14.37.11,29.15-.41,44.33-1.85,54.53-8.6,104.38-17.7,148.79-6.29-20.1-12.58-40.19-18.88-60.28-.8,14.36-1.38,29.19-1.69,44.49-.32,16.46-.3,32.39,0,47.77-13.42-20.85-28.67-48.67-41.14-83.18-13.09-36.22-19.14-68.82-22.01-94.25,3.34,7.02,7.82,15.07,13.88,23.45,9.26,12.81,19.15,22.17,27.26,28.7-3.48-23.37-6.98-46.74-10.46-70.12,14.48-.18,30.32-6.33,38.24-19.1-30.19,13.73-60.53,5.85-81.79-19.14l-2.41,6.48c-19.97,5.16-43.81,7.93-65.54,4.63-11.61-37.31-29.78-71.71-53.18-101.86ZM1311.71,975.21c-2.06-5.9-10.14-9.88-18.95-7.62,10.96,2.55,15.33,6.94,15.12,10.83-.3,5.57-18.18,11.78-27.02,5.34-1.12-.82-2.39-1.75-3.01-3.44-2.84-7.63,11.63-19.26,18.07-24.44,4.57-3.67,11.26-8.38,20.21-12.67,35.03-6.2,46.97,22.07,55.2,50.05l-.04,2.93c-11.23,2.58-18.81,10.13-25.53,18.79-8.14,10.51-16.09,18.43-20.36,25.56-7.64-19.03-4.68-28.16-1.61-32.72,1.7-2.53,3.46-3.56,13.04-12.15,5.68-5.1,10.29-9.32,13.31-12.11l-16.99,8.46,3.2-12.71c-11.33,15.83-36.17,39.67-56.26,24.36-3.56-2.71-14.46-17.92-3.34-15.79,8.58,1.65,16.92,7.39,24.88,4.92,3.98-1.23,6.38-3.93,7.18-4.93,2.52-3.13,4.48-8.24,2.92-12.67ZM1397.9,1040.91c-2.32,3.97-6.11,9.85-11.78,16.13-7.38,8.16-18.71,20.71-35.86,23.29-2.2.34-20.87,3.21-27.48-7.11-1.52-2.38-2.4-5.33-2.38-8.95,9.65,9.62,22.4,11.83,30.09,6.66,4.64-3.11,9.46-10.26,7.61-17.19-1.39-5.22-5.9-7.81-6.4-8.09-5.71-3.17-11.48-.83-12.21-.52,14.55,1.03,19.07,10.87,7.88,20.63-6.25,5.45-23.15-4.39-22.53-8.58.58-3.83,33.8-44.24,39.1-48.12,36.68-26.94,55.23,25.37,56.4,54.03-10.89,3.14-16.78,13.07-23.44,21.5-11.02-2.85-14.16-6.3-14.65-9.2-1.23-7.02,12.74-12.42,15.33-27.54.48-2.83.44-5.24.31-6.92ZM1319,584.04c8.22.6,19.13-3.16,26.93.11,3.99,1.67,8.66,10.9,12.43,14.45,22.66,21.29,50.2,48.38,84.45,38.36l4.36,1.36,51.95,43.94c-8.87,24.8-22.54,54.81-44.08,85.78-9.45,13.56-19.12,25.46-28.46,35.81,17.26-34.14,33.58-69.79,41.36-107.44-5.07-2.97-28.53-21.89-32.36-20.95-1.8.44-19.66,24.59-23.37,28.65-6.09,6.67-14.36,15.26-21.09,21.14-2.76,2.41-26.06,20.83-27.87,19.12,19.14-27.66,44.25-53.21,53.71-86.3l-34.6-10.74c-8.78,16.04-16.44,32.84-27.14,47.75-1.65,2.31-17.58,23.82-20.76,20.5,5.46-12.39,13.12-23.86,18.2-36.48,5.16-12.81,8.45-26.2,12.41-39.41l-28.68-27.74c-9.5,38.29-28.28,77.7-49.11,111.17-6.09,9.77-13.16,21.7-21.9,28.93,25.68-53.4,44.55-109.13,53.62-167.99ZM753.56,445.65c16.92-36.73,32.23-75.96,44.92-114.38,9.12-27.6,19.1-80.75,34.07-102.18,28.24-40.37,77.38-84.89,120.83-107.56,9.53-4.98,36.54-19.26,46.62-21.52,10.07,2.27,37.08,16.54,46.61,21.52,43.45,22.67,92.59,67.19,120.83,107.56,14.98,21.43,24.96,74.58,34.07,102.18,12.69,38.42,28,77.65,44.92,114.38,16.7,36.25,57.22,95.98,53.24,134.38-1.56,14.89-8.72,31.1-13.23,45.33-3.28.48-2.05-4.58-1.88-6.67,3.14-37.83,3.62-55.82-13.11-90.58-18.99-39.44-46.65-78.22-66.59-117.65-2.98-5.89-20.43-41.25-18.17-44.18l30.66,46.06c-9.55-28.74-21.39-57.57-31.56-86.46-17.48-49.67-19.17-75.33-54.89-117.38-25.99-30.58-57.44-60.35-94.54-76.73-6.87-3.03-27.33-11.17-36.36-12.87-9.03,1.7-29.5,9.84-36.37,12.87-37.1,16.38-68.54,46.14-94.54,76.73-35.72,42.04-37.42,67.71-54.89,117.38-10.16,28.88-22.01,57.71-31.56,86.46l30.66-46.06c2.26,2.94-15.2,38.3-18.17,44.18-19.94,39.43-47.6,78.21-66.59,117.65-16.74,34.76-16.25,52.75-13.12,90.58.18,2.09,1.41,7.16-1.87,6.67-4.52-14.23-11.68-30.44-13.23-45.33-3.99-38.4,36.52-98.13,53.23-134.38ZM552.83,638.31l4.36-1.36c34.25,10.02,61.79-17.06,84.45-38.36,3.77-3.54,8.44-12.77,12.43-14.45,7.8-3.27,18.71.49,26.93-.11,9.08,58.86,27.95,114.6,53.62,167.99-8.74-7.23-15.81-19.15-21.9-28.93-20.84-33.47-39.61-72.88-49.11-111.17l-28.68,27.74c3.96,13.2,7.25,26.6,12.42,39.41,5.08,12.62,12.73,24.09,18.19,36.48-3.16,3.32-19.11-18.19-20.76-20.5-10.7-14.91-18.36-31.71-27.14-47.75l-34.6,10.74c9.46,33.09,34.57,58.64,53.71,86.3-1.81,1.71-25.1-16.7-27.87-19.12-6.73-5.88-15-14.46-21.09-21.14-3.71-4.05-21.57-28.2-23.37-28.65-3.82-.94-27.3,17.98-32.36,20.95,7.78,37.65,24.11,73.31,41.36,107.44-9.34-10.35-19.01-22.25-28.45-35.81-21.55-30.97-35.22-60.98-44.09-85.78l51.95-43.94ZM374.33,966.53c43.74-40.68,44.35-113.37,67.6-162.71,0,0,21.14-41.49,45.88-57.75.23-.15,12.4-8.14,12.4-8.14,0,0,2.75,6.33,7,15.25,4.24,8.92,10,20.44,15.99,30.86,4.64,8.06,11.92,19.77,22.43,33.28-5.12-2.12-10.68-4.93-16.37-8.64-19.88-12.97-30.8-30.25-36.41-41.29-27.75,27.31-45.39,58.15-36.67,75.84,5.31,10.77,25.79,27.64,37.18,37.01,2.17,1.79,3.99,3.24,5.22,4.2-8.72-2-19.01-4.34-29.6-9.26-9.45-4.4-18.62-9.54-27.96-13.75l-24.97,72.92c6.03-4.42,18.81-12.42,36.08-12.83,5.22-.12,9.87.47,13.81,1.31-10.94,4.05-21.79,12.48-31.31,19.56-11.11,8.26-36.25,27.03-42.01,38.61-3,6.03-4.06,13.59-6.94,19.93-7.99,17.58-15.56,38.65-29.12,52.43l17.76-86.83ZM287.38,1238.5c-2.49,19.94.8,35.04,2.01,49.95,3.86,47.65,14.68,94.57,24.92,141.08-1.59-3.53-3.84-8.62-6.44-14.78-3.6-8.58-19.65-47.17-29.06-84.99-13.08-52.53-20.14-80.85-8.77-112.44,4.5-12.52,17.23-40.39,55.78-64.15-14.29,17.4-33.58,46.48-38.44,85.34ZM320.17,1129.26c-5.16,12.38-9.73,32.22-20.69,33.49-1.02.12-1.88.06-2.43-.02,5.33-19.98,3.82-49.25,19.17-64.3,23.22-22.74,68.15-40.9,99.82-46.99-11.43,9.64-27.1,14.27-40.15,22.21-28.2,17.16-45.9,32.01-55.72,55.6ZM345.5,1550.93c-1.51-25.06-2.44-51.24-2.64-78.45-.31-43.07,1.28-83.72,4.12-121.62,1.06,12.26,2.79,30.88,5.39,53.47,9.57,83.2,14.38,124.79,31.33,164.07,9.62,22.26,27.58,55.15,63.06,89.5l-23.05-18.18c-28.24-27.66-56.35-55.56-78.2-88.78ZM1657.14,1472.48c-.19,27.22-1.14,53.4-2.64,78.45-21.85,33.22-49.96,61.12-78.19,88.78l-23.06,18.18c35.48-34.35,53.44-67.23,63.06-89.5,16.95-39.28,21.75-80.88,31.32-164.07,2.61-22.6,4.33-41.21,5.39-53.47,2.84,37.91,4.42,78.55,4.12,121.62ZM1624.1,1073.67c-13.04-7.94-28.72-12.57-40.15-22.21,31.67,6.09,76.6,24.25,99.82,46.99,15.35,15.05,13.84,44.32,19.17,64.3-.56.08-1.41.14-2.43.02-10.96-1.27-15.53-21.11-20.69-33.49-9.82-23.59-27.52-38.44-55.72-55.6ZM1721.19,1329.75c-9.41,37.82-25.45,76.42-29.06,84.99-2.59,6.16-4.86,11.25-6.44,14.78,10.24-46.5,21.06-93.43,24.92-141.08,1.21-14.91,4.5-30.01,2.01-49.95-4.86-38.86-24.15-67.94-38.44-85.34,38.56,23.76,51.29,51.63,55.78,64.15,11.37,31.59,4.31,59.91-8.77,112.44Z"/>
  </g>
</svg>